<svg xmlns="http://www.w3.org/2000/svg" width="705" height="1060" viewBox="0 0 705 1060"><g fill-rule="evenodd" clip-rule="evenodd" fill="#FFF"><path d="M2 1061c-.308-.218-1.043.506-1.011-.5.043-1.332.011-2.667.011-4 0-350.333.007-700.667-.093-1051C.906 1.751 1.751.905 5.5.906c232 .104 464 .104 696 0 3.749-.001 4.61.843 4.598 4.594C705.945 49.666 706 93.833 706 138c-1.477 1.924-3.588 2.237-5.806 2.314-3.331.115-6.664.08-9.996.08-192.11.003-384.222.002-576.333.003-12.526 0-12.456.047-8.683 11.909 16.762 52.7 34.258 105.169 49.871 158.233 3.573 12.143 7.47 24.19 11.083 36.324 1.949 6.544 3.525 7.694 10.368 7.709 30.991.063 61.982.057 92.973.003 7.209-.012 8.262-1.559 6.1-8.479-9.787-31.321-19.667-62.613-29.313-93.979-.44-1.433-.956-2.846-1.199-4.331-.556-3.396.673-5.503 4.278-5.91 2.325-.263 4.657-.265 6.989-.265 146.458-.013 292.916-.02 439.373.039 3.537.002 7.444-.95 10.295 2.349v169c-1.477 1.924-3.588 2.237-5.806 2.314-3.331.115-6.664.08-9.996.08-192.11.003-384.222.002-576.333.003-12.526 0-12.455.047-8.682 11.909 16.762 52.701 34.258 105.17 49.871 158.233 3.573 12.144 7.471 24.191 11.083 36.325 1.948 6.543 3.525 7.693 10.368 7.708 30.991.063 61.982.057 92.973.003 7.209-.012 8.262-1.559 6.099-8.479-9.786-31.321-19.667-62.614-29.313-93.979-.44-1.432-.956-2.846-1.199-4.33-.556-3.396.673-5.503 4.279-5.91 2.325-.263 4.657-.265 6.989-.265 146.458-.013 292.915-.02 439.372.039 3.538.002 7.444-.95 10.295 2.349v235c-1.346 1.749-3.246 2.178-5.311 2.281-2.831.143-5.664.122-8.496.123-60.658.004-121.316.002-181.975.003-2.166.001-4.334-.055-6.498.048-5.545.263-7.15 1.739-7.244 7.297-.178 10.663-.15 21.33-.015 31.994.077 6.08 1.71 7.74 7.796 7.791 17.497.146 34.994.024 52.492.063 13.549.029 13.644.1 13.646 13.626.019 77.655.031 155.311-.045 232.966-.004 3.693 1.053 7.784-2.352 10.808h-83c-3.44-2.528-4.539-6.502-6.092-10.135-15.51-36.309-31.139-72.565-46.646-108.875-.654-1.532-1.245-3.09-1.882-4.626-1.666-4.015-.797-6.953 3.02-9.309 27.471-16.953 37.977-43.006 39.176-73.869.551-14.192-.061-28.274-4.57-41.996-9.528-28.997-30.014-45.578-59.015-52.551-10.232-2.46-20.669-3.348-31.224-3.302-28.998.123-57.997.029-86.996.05-8.851.006-9.382.527-9.384 9.326-.017 94.829.01 189.659-.061 284.489-.003 3.687 1.143 7.787-2.327 10.797h-28c-2.505-1.389-3.677-3.687-4.504-6.312-10.361-32.88-20.665-65.778-31.025-98.659-6.407-20.333-12.794-40.673-19.199-61.007-13.911-44.16-27.891-88.299-41.599-132.522-1.362-4.393-3.637-6.229-8.208-6.185-13.661.133-27.325.14-40.986-.003-4.615-.048-6.82 1.894-8.164 6.245-9.335 30.235-18.881 60.404-28.269 90.623-14.031 45.169-28.245 90.281-42.26 135.455-6.761 21.791-13.694 43.529-20.376 65.346-.845 2.772-1.972 5.287-4.407 7.021z"/><path d="M631 1061c-.07-1.827-.203-3.654-.203-5.48-.01-81.106-.009-162.212-.008-243.318 0-6.551.006-6.559 6.304-6.561 21.151-.003 42.302-.01 63.452.015 1.818.002 3.637.225 5.455.345 0 83.667-.027 167.333.096 251 .006 3.424-.668 4.129-4.097 4.102-23.665-.194-47.333-.103-70.999-.103zm-564 0c5.011-18.785 10.259-37.513 14.881-56.393 1.284-5.246 3.342-6.693 8.646-6.624 24.31.32 48.627.217 72.941.06 3.65-.024 5.132 1.019 6.043 4.665 4.635 18.55 9.604 37.017 14.476 55.508.25.951.671 1.857 1.013 2.784H67zm274 0c-.01-35.796.029-71.592-.106-107.387-.014-3.576.682-5.004 4.601-4.815 6.977.336 13.994.351 20.969-.006 3.946-.201 5.781 1.08 7.282 4.772 14.275 35.111 28.766 70.136 43.199 105.182.314.767.701 1.504 1.055 2.254h-77zm-.029-210.026c0-13.649.114-27.3-.078-40.946-.05-3.526 1.048-4.524 4.5-4.458 10.483.2 20.973-.019 31.458.096 19.371.212 30.365 9.031 34.461 27.95 2.783 12.858 2.943 25.792-1.033 38.479-5.197 16.578-16.406 24.782-33.741 24.916-10.485.081-20.976-.104-31.458.091-3.271.061-4.22-.917-4.181-4.183.168-13.981.072-27.963.072-41.945zm-215.172-11.846c1.708 2.542 1.919 5.205 2.569 7.676 8.245 31.325 16.376 62.682 24.757 93.97 1.153 4.303.884 5.791-4.124 5.695-15.633-.298-31.276-.139-46.916-.084-2.829.011-4.914.004-3.858-3.974 8.986-33.879 17.859-67.788 26.778-101.685.11-.413.384-.784.794-1.598z"/></g></svg>