<svg xmlns="http://www.w3.org/2000/svg" width="705" height="744" viewBox="0 154.5 705 744"><path fill="#333" d="M154.79 424.171V635.83l197.71 93.044 197.709-93.044V424.171L352.5 331.126l-197.71 93.045zm358.635 6.975L352.5 506.879l-160.925-75.733L352.5 355.411l160.925 75.735zm-336.667 17.31l164.758 77.535v173.425l-164.758-77.535V448.456zm186.726 250.96V525.99l164.758-77.535V621.88l-164.758 77.536z"/><path fill="#FD7F34" d="M484.306 588.928l-103.524 48.725 9.348 19.882 116.145-54.656V486.065h-21.969z"/><path fill="#333" d="M522.497 234.907a326.61 326.61 0 0 0-20.276-10.797l-9.677 19.705a326.173 326.173 0 0 1 18.97 10.116l10.983-19.024zM121.838 365.242c36.346 0 65.904-29.557 65.904-65.903 0-12.983-3.822-25.065-10.326-35.269 52.02-34.326 112.365-52.603 175.083-52.603 41.903 0 82.643 8.007 121.086 23.813l8.359-20.32c-41.112-16.892-84.663-25.46-129.444-25.46-68.177 0-133.773 20.133-190.032 58.061-11.204-8.82-25.296-14.125-40.63-14.125-36.345 0-65.903 29.557-65.903 65.903 0 36.346 29.558 65.903 65.903 65.903zm0-109.838c24.231 0 43.936 19.705 43.936 43.935s-19.705 43.935-43.936 43.935c-24.23 0-43.935-19.705-43.935-43.935s19.705-43.935 43.935-43.935z"/><path fill="#FD7F34" d="M110.855 288.355h21.967v21.968h-21.967z"/><path fill="#333" d="M76.432 370.987l-19.024-10.984a344.479 344.479 0 0 0-10.797 20.265l19.727 9.677a322.772 322.772 0 0 1 10.094-18.958zm45.406 323.772c-12.983 0-25.053 3.822-35.269 10.325C52.234 653.052 33.967 592.719 33.967 530c0-41.925 8.008-82.664 23.813-121.075l-20.32-8.37C20.568 441.635 12 485.197 12 530c0 68.178 20.133 133.772 58.06 190.032-8.82 11.204-14.125 25.296-14.125 40.63 0 36.345 29.558 65.903 65.903 65.903 36.346 0 65.904-29.559 65.904-65.903 0-36.346-29.558-65.903-65.904-65.903zm0 109.837c-24.23 0-43.935-19.705-43.935-43.935 0-24.231 19.705-43.937 43.935-43.937 24.231 0 43.936 19.705 43.936 43.937 0 24.23-19.705 43.935-43.936 43.935z"/><path fill="#FD7F34" d="M110.855 749.677h21.967v21.968h-21.967z"/><path fill="#333" d="M182.503 825.094a327.37 327.37 0 0 0 20.275 10.797l9.677-19.716a324.891 324.891 0 0 1-18.969-10.116l-10.983 19.035zm400.658-130.335c-36.346 0-65.903 29.558-65.903 65.903 0 12.982 3.822 25.064 10.325 35.269-52.021 34.324-112.365 52.603-175.083 52.603-41.904 0-82.643-8.008-121.086-23.813l-8.359 20.32c41.113 16.893 84.663 25.461 129.445 25.461 68.177 0 133.771-20.134 190.031-58.062 11.204 8.82 25.296 14.126 40.63 14.126 36.345 0 65.903-29.559 65.903-65.903.001-36.347-29.558-65.904-65.903-65.904zm0 109.837c-24.231 0-43.937-19.705-43.937-43.935 0-24.231 19.705-43.937 43.937-43.937 24.229 0 43.935 19.705 43.935 43.937 0 24.23-19.705 43.935-43.935 43.935z"/><path fill="#FD7F34" d="M572.177 749.677h21.968v21.968h-21.968z"/><path fill="#333" d="M634.939 339.969c8.82-11.204 14.126-25.296 14.126-40.63 0-36.346-29.559-65.903-65.903-65.903-36.346 0-65.903 29.557-65.903 65.903 0 36.346 29.558 65.903 65.903 65.903 12.982 0 25.054-3.822 35.269-10.325 34.336 52.03 52.603 112.365 52.603 175.083 0 41.926-8.008 82.665-23.813 121.076l20.32 8.37C684.432 618.365 693 574.803 693 530c0-68.177-20.134-133.772-58.061-190.031zm-51.778 3.305c-24.231 0-43.937-19.705-43.937-43.935s19.705-43.935 43.937-43.935c24.229 0 43.935 19.705 43.935 43.935s-19.705 43.935-43.935 43.935zm45.408 345.739l19.024 10.984a345.38 345.38 0 0 0 10.797-20.266l-19.728-9.676a323.636 323.636 0 0 1-10.093 18.958z"/><path fill="#FD7F34" d="M572.177 288.355h21.968v21.968h-21.968zm-373.451 197.71l120.822 54.919v120.822l-120.822-54.919zm32.951-54.919l120.823-54.92 120.823 54.92L352.5 486.065z"/></svg>