<svg xmlns="http://www.w3.org/2000/svg" viewBox="0 0 512 512" width="512" height="512"><path d="M255.302 449.46c-11.209 0-20.327 9.113-20.327 20.317 0 11.208 9.119 20.327 20.327 20.327 11.203 0 20.317-9.119 20.317-20.327 0-11.203-9.114-20.317-20.317-20.317zm0 25.683a5.372 5.372 0 0 1-5.366-5.366c0-2.953 2.407-5.356 5.366-5.356a5.362 5.362 0 0 1 5.356 5.356c0 2.959-2.403 5.366-5.356 5.366zm-54.906-260.339a7.48 7.48 0 0 0-7.48 7.48v15.686a7.48 7.48 0 0 0 14.96 0v-15.686a7.48 7.48 0 0 0-7.48-7.48zm109.804 7.844a7.48 7.48 0 0 0-7.48 7.48v11.328a7.48 7.48 0 0 0 14.96 0v-11.328a7.479 7.479 0 0 0-7.48-7.48z" fill="#FFF"/><path d="M504.52 1.622a7.48 7.48 0 0 0-7.48 7.48v48.373h-24.436a7.48 7.48 0 0 0-7.48 7.48v65.828a6.49 6.49 0 0 1-6.483 6.483 6.459 6.459 0 0 1-4.574-1.888 6.474 6.474 0 0 1-1.909-4.595v-7.48c0-9.899-8.054-17.953-17.953-17.953-4.79 0-9.298 1.869-12.691 5.263s-5.262 7.901-5.262 12.69v63.833a4.992 4.992 0 0 1-4.987 4.987 4.96 4.96 0 0 1-3.528-1.46 4.953 4.953 0 0 1-1.459-3.527V117.1c0-19.128-15.561-34.689-34.689-34.689h-13.405c-19.128 0-34.689 15.562-34.689 34.689v62.684a7.465 7.465 0 0 0-3.06 2.637l-7.203 10.85-4.814-9.966a7.481 7.481 0 0 0-6.735-4.226h-36.584a7.48 7.48 0 0 0-6.929 4.662l-6.356 15.625-5.324-15.27a7.482 7.482 0 0 0-7.064-5.017h-31.198a7.478 7.478 0 0 0-6.879 4.543l-.768 1.799-1.85-2.892a7.482 7.482 0 0 0-6.302-3.449h-5.294l-.461-78.821c-.05-10.102-8.29-18.285-18.395-18.285h-.091l-27.075.16c-10.126.067-18.322 8.361-18.272 18.496l.289 49.546c.024 3.627-2.722 6.722-6.115 6.902a6.382 6.382 0 0 1-4.809-1.761 6.41 6.41 0 0 1-2.03-4.564l.823-27.782.001-.261a21.526 21.526 0 0 0-6.72-15.471c-4.305-4.066-9.93-6.142-15.868-5.825-11.454.608-20.366 10.246-20.289 21.935l.299 52.467a6.42 6.42 0 0 1-1.977 4.7 6.376 6.376 0 0 1-4.786 1.811c-3.401-.14-6.183-3.203-6.202-6.832l-.489-83.238c-.04-7.364-2.946-14.271-8.183-19.448-5.196-5.138-12.066-7.96-19.36-7.96h-.177l-12.287.067V9.103a7.48 7.48 0 0 0-7.48-7.48A7.478 7.478 0 0 0 0 9.103v63.334c0 1.991.794 3.9 2.205 5.304 1.412 1.403 3.363 2.219 5.316 2.176l19.813-.11h.081a12.51 12.51 0 0 1 8.849 3.637 12.517 12.517 0 0 1 3.74 8.894l.489 83.238c.063 11.695 9.088 21.225 20.549 21.697.305.012.609.019.913.019 5.589 0 10.845-2.118 14.882-6.018a21.536 21.536 0 0 0 6.545-15.551l-.299-52.469c-.024-3.625 2.722-6.721 6.116-6.902a6.409 6.409 0 0 1 4.809 1.761 6.413 6.413 0 0 1 2.03 4.564l-.823 27.783a7.456 7.456 0 0 0-.003.259 21.526 21.526 0 0 0 6.72 15.471c4.306 4.066 9.938 6.137 15.868 5.825 11.455-.607 20.367-10.245 20.289-21.936l-.289-49.533a3.44 3.44 0 0 1 3.406-3.454l27.061-.16h.017a3.426 3.426 0 0 1 3.427 3.405l.475 81.223c-5.829 3.302-9.77 9.562-9.77 16.726v91.181c0 1.061.023 2.12.067 3.177l.006.131a74.239 74.239 0 0 0 19.581 47.106c11.028 11.987 25.516 19.951 41.347 22.848v56.41c0 12.992-2.105 25.344-6.258 36.711-2.024 5.539-2.803 11.371-2.314 17.343 1.624 19.759 17.768 35.7 37.557 37.081.982.068 1.96.102 2.933.102 10.323 0 20.052-3.817 27.657-10.91 8.202-7.652 12.905-18.473 12.905-29.687 0-4.022-.589-7.996-1.75-11.801-3.465-11.391-5.221-22.37-5.221-32.633 0-4.132-3.349-7.48-7.48-7.48s-7.48 3.348-7.48 7.48c0 11.739 1.975 24.183 5.871 36.991.73 2.396 1.101 4.9 1.101 7.443 0 7.186-2.894 13.844-8.151 18.747-5.256 4.902-12.128 7.314-19.345 6.825-12.478-.871-22.662-10.922-23.685-23.377-.31-3.798.18-7.494 1.455-10.988 4.756-13.016 7.167-27.094 7.167-41.844v-55.17h6.464c4.131 0 7.48-3.348 7.48-7.48s-3.349-7.48-7.48-7.48h-11.895a7.532 7.532 0 0 0-1.387-.256c-27.369-2.435-48.775-22.721-53.299-48.911H334.08c-4.523 26.19-25.929 46.476-53.299 48.911a7.481 7.481 0 0 0-6.817 7.452v34.104c0 4.132 3.349 7.48 7.48 7.48s7.48-3.348 7.48-7.48v-27.578c15.831-2.897 30.319-10.863 41.347-22.848a74.232 74.232 0 0 0 19.581-47.106l.006-.131c.045-1.056.067-2.114.067-3.177V191.27c0-6.476-5.082-11.788-11.47-12.165v-62c0-10.878 8.85-19.728 19.728-19.728h13.405c10.879 0 19.728 8.85 19.728 19.728v70.037c0 5.331 2.075 10.34 5.842 14.107s8.777 5.841 14.106 5.841c10.999 0 19.948-8.949 19.948-19.948v-63.833c0-1.07.553-1.782.882-2.111a2.975 2.975 0 0 1 2.11-.881 2.996 2.996 0 0 1 2.992 2.992v7.48c0 5.714 2.226 11.095 6.292 15.175 4.059 4.042 9.44 6.269 15.152 6.269 11.824 0 21.444-9.62 21.444-21.444V72.442h24.436a7.48 7.48 0 0 0 7.48-7.48V9.108a7.48 7.48 0 0 0-7.48-7.486zM334.963 284.881H177.376v-12.418h157.588v12.418zm.001-27.377H177.377v-59.215a4.254 4.254 0 0 1 4.249-4.249h6.707l7.267 11.36a7.506 7.506 0 0 0 6.92 3.424 7.483 7.483 0 0 0 6.261-4.517l4.385-10.268h20.945l10.099 28.964a7.48 7.48 0 0 0 13.992.355l11.928-29.319h26.858l8.481 17.557a7.48 7.48 0 0 0 6.228 4.209 7.46 7.46 0 0 0 6.74-3.325l12.243-18.44h4.286v63.464z" fill="#FFF"/><path d="M291.078 71.44a7.48 7.48 0 0 0-7.48 7.48v23.937c0 4.675-3.803 8.478-8.478 8.478s-8.478-3.803-8.478-8.478V39.024a7.48 7.48 0 0 0-7.48-7.48 7.48 7.48 0 0 0-7.48 7.48v63.833c0 12.924 10.514 23.439 23.439 23.439s23.439-10.514 23.439-23.439V78.92a7.482 7.482 0 0 0-7.482-7.48zM77.551 234.619a22.253 22.253 0 0 0-15.872-6.59c-12.375 0-22.441 10.068-22.441 22.441v13.963c0 12.374 10.067 22.441 22.441 22.441 12.375 0 22.441-10.068 22.441-22.441V250.47c0-6-2.34-11.637-6.569-15.851zm-8.392 29.815c0 4.125-3.355 7.48-7.48 7.48s-7.48-3.355-7.48-7.48v-13.963c0-4.125 3.355-7.48 7.48-7.48 1.995 0 3.867.777 5.292 2.207a7.392 7.392 0 0 1 2.188 5.273v13.963zm404.933-20.44a20.312 20.312 0 0 0-14.455-5.99c-11.274 0-20.446 9.172-20.446 20.446v49.87c0 11.274 9.172 20.446 20.446 20.446s20.446-9.172 20.446-20.446v-49.87a20.313 20.313 0 0 0-5.991-14.456zm-8.969 64.326c0 3.025-2.461 5.486-5.486 5.486s-5.486-2.461-5.486-5.486v-49.87a5.492 5.492 0 0 1 5.486-5.486c1.462 0 2.84.571 3.876 1.608a5.452 5.452 0 0 1 1.61 3.878v49.87zM214.279 47.502a7.48 7.48 0 0 0-7.48 7.48v28.924c0 4.132 3.349 7.48 7.48 7.48s7.48-3.348 7.48-7.48V54.983a7.479 7.479 0 0 0-7.48-7.481z" fill="#FFF"/></svg>