<svg xmlns="http://www.w3.org/2000/svg" viewBox="0 0 512 512"><path d="M169.895 264.983v24.486c0 34.988 26.81 63.693 61 66.735v62.935c0 13.385-2.124 26.72-6.712 39.277-1.596 4.369-2.294 9.156-1.885 14.163 1.327 16.138 14.472 29.104 30.62 30.231 19.369 1.346 35.497-13.953 35.497-33.034a32.97 32.97 0 0 0-1.426-9.625c-3.441-11.31-5.546-22.99-5.546-34.809v-69.139c34.191-3.042 61-31.747 61-66.735v-24.486l-172.548.001zm85.407 217.64c-7.091 0-12.846-5.755-12.846-12.846s5.755-12.836 12.846-12.836 12.836 5.745 12.836 12.836-5.745 12.846-12.836 12.846z" fill="#00aa95"/><path d="M281.443 425.343v-69.139a66.647 66.647 0 0 0 11.006-1.933c-28.763-7.531-49.994-33.671-49.994-64.802v-24.486h-72.56v24.486c0 34.988 26.81 63.693 61 66.735v62.935c0 13.385-2.124 26.72-6.712 39.277-1.596 4.369-2.294 9.156-1.885 14.163 1.327 16.138 14.472 29.104 30.62 30.231 19.369 1.346 35.497-13.953 35.497-33.034a32.97 32.97 0 0 0-1.426-9.625c-3.441-11.309-5.546-22.989-5.546-34.808zm-26.141 57.28c-7.091 0-12.846-5.755-12.846-12.846s5.755-12.836 12.846-12.836 12.836 5.745 12.836 12.836-5.745 12.846-12.836 12.846z" fill="#00a870"/><path d="M504.52 9.103v42.039c0 7.63-6.185 13.815-13.815 13.815h-4.286c-7.63 0-13.815 6.185-13.815 13.815v51.634c0 7.393-5.589 13.791-12.964 14.308a13.963 13.963 0 0 1-14.963-13.928v-7.151c0-5.562-4.199-10.403-9.748-10.777a10.438 10.438 0 0 0-8.125 3.047 10.432 10.432 0 0 0-3.072 7.401v63.459c0 6.85-5.599 12.831-12.449 12.841a12.438 12.438 0 0 1-8.835-3.65 12.438 12.438 0 0 1-3.65-8.817V117.1c0-15.027-12.182-27.209-27.209-27.209h-13.405c-15.027 0-27.209 12.182-27.209 27.209v106.441H179.372l.309-39.576-.489-83.671c-.03-6.014-4.947-10.872-10.961-10.842l-27.069.16c-6.014.04-10.872 4.947-10.842 10.971l.289 49.54c.05 7.52-5.695 14.023-13.205 14.422-8.009.419-14.672-5.934-14.711-13.864l.828-27.937c-.04-7.929-6.702-14.283-14.711-13.864-7.51.399-13.255 6.902-13.205 14.422l.299 52.463c.05 7.939-6.533 14.362-14.552 14.033-7.51-.309-13.335-6.742-13.375-14.263l-.489-83.242c-.06-11.091-9.106-20.038-20.197-19.968l-9.055.05C12.304 72.41 7.48 67.613 7.48 61.683V9.103h497.04z" fill="#ff7400"/><path d="M275.619 118.317c-8.814 0-15.958-7.144-15.958-15.958V48.72c0-5.63 4.564-10.194 10.194-10.194h11.528c5.63 0 10.194 4.564 10.194 10.194v53.639c0 8.813-7.145 15.958-15.958 15.958z" fill="#e04e05"/><path d="M342.444 191.276v73.707H169.895v-66.695c0-6.478 5.251-11.729 11.729-11.729h8.641c1.345 0 2.599.686 3.324 1.819l4.289 6.703c1.709 2.67 5.709 2.338 6.954-.577l2.369-5.549a3.947 3.947 0 0 1 3.63-2.397h25.789a3.945 3.945 0 0 1 3.726 2.647l7.484 21.463c1.198 3.435 6.01 3.558 7.382.188l8.884-21.838a3.946 3.946 0 0 1 3.655-2.46h31.453a3.95 3.95 0 0 1 3.554 2.23l6.432 13.319c1.33 2.753 5.15 3.013 6.841.466l9.462-14.252a3.947 3.947 0 0 1 3.287-1.763h8.945a4.72 4.72 0 0 1 4.719 4.718z" fill="#dddbc7"/><path d="M241.921 193.721l-1.575-4.517a3.947 3.947 0 0 0-3.726-2.647h-25.79a3.948 3.948 0 0 0-3.63 2.397l-2.369 5.549c-1.245 2.915-5.245 3.247-6.954.577l-4.289-6.704a3.945 3.945 0 0 0-3.324-1.819h-8.64c-6.478 0-11.729 5.251-11.729 11.729v66.695h71.104v-66.695c0-1.618.328-3.161.922-4.565z" fill="#c6c3ab"/><path d="M76.639 250.471v13.963c0 8.258-6.702 14.961-14.961 14.961s-14.961-6.702-14.961-14.961v-13.963c0-8.258 6.702-14.961 14.961-14.961 4.129 0 7.869 1.676 10.572 4.389a14.873 14.873 0 0 1 4.389 10.572zm395.964 7.979v49.87c0 7.161-5.805 12.966-12.966 12.966s-12.966-5.805-12.966-12.966v-49.87c0-7.161 5.805-12.966 12.966-12.966 3.581 0 6.822 1.456 9.166 3.8a12.927 12.927 0 0 1 3.8 9.166z" fill="#e04e05"/><path d="M234.975 469.777c0 11.208 9.119 20.327 20.327 20.327 11.203 0 20.317-9.119 20.317-20.327 0-11.203-9.114-20.317-20.317-20.317-11.209 0-20.327 9.113-20.327 20.317zm20.327-5.356a5.362 5.362 0 0 1 5.356 5.356c0 2.959-2.403 5.366-5.356 5.366a5.372 5.372 0 0 1-5.366-5.366c0-2.953 2.407-5.356 5.366-5.356zm-54.906-249.617a7.48 7.48 0 0 0-7.48 7.48v15.686a7.48 7.48 0 0 0 7.48 7.48 7.48 7.48 0 0 0 7.48-7.48v-15.686a7.48 7.48 0 0 0-7.48-7.48zm109.804 7.843a7.48 7.48 0 0 0-7.48 7.48v11.328c0 4.132 3.349 7.48 7.48 7.48s7.48-3.348 7.48-7.48v-11.328a7.48 7.48 0 0 0-7.48-7.48z"/><path d="M504.52 1.622a7.48 7.48 0 0 0-7.48 7.48v48.373h-24.436a7.48 7.48 0 0 0-7.48 7.48v65.828a6.49 6.49 0 0 1-6.483 6.483 6.459 6.459 0 0 1-4.574-1.888 6.474 6.474 0 0 1-1.909-4.595v-7.48c0-9.899-8.054-17.953-17.953-17.953-4.79 0-9.298 1.869-12.691 5.263s-5.262 7.901-5.262 12.69v63.833a4.992 4.992 0 0 1-4.987 4.987 4.958 4.958 0 0 1-3.528-1.46 4.953 4.953 0 0 1-1.459-3.527V117.1c0-19.128-15.561-34.689-34.689-34.689h-13.405c-19.128 0-34.689 15.562-34.689 34.689v62.684a7.465 7.465 0 0 0-3.06 2.637l-7.203 10.85-4.814-9.966a7.481 7.481 0 0 0-6.735-4.226h-36.584a7.48 7.48 0 0 0-6.929 4.662l-6.356 15.625-5.324-15.27a7.482 7.482 0 0 0-7.064-5.017h-31.198a7.478 7.478 0 0 0-6.879 4.543l-.768 1.799-1.85-2.892a7.481 7.481 0 0 0-6.301-3.449h-5.294l-.461-78.821c-.05-10.102-8.29-18.285-18.395-18.285h-.091l-27.075.16c-10.126.067-18.322 8.361-18.272 18.496l.289 49.546c.024 3.627-2.722 6.722-6.115 6.902a6.382 6.382 0 0 1-4.809-1.761 6.41 6.41 0 0 1-2.03-4.564l.823-27.782c.003-.086.004-.173.003-.259a21.53 21.53 0 0 0-6.72-15.472c-4.305-4.066-9.93-6.142-15.868-5.825-11.454.608-20.366 10.246-20.289 21.935l.299 52.467a6.42 6.42 0 0 1-1.977 4.7 6.376 6.376 0 0 1-4.786 1.811c-3.401-.14-6.183-3.203-6.202-6.832l-.489-83.238c-.04-7.364-2.946-14.271-8.183-19.448-5.196-5.138-12.066-7.96-19.36-7.96h-.177l-12.287.067V9.103c0-4.132-3.349-7.48-7.48-7.48S0 4.97 0 9.103v63.334c0 1.991.794 3.9 2.205 5.304 1.412 1.403 3.363 2.219 5.316 2.176l19.813-.11h.081a12.51 12.51 0 0 1 8.849 3.637 12.517 12.517 0 0 1 3.74 8.894l.489 83.238c.063 11.695 9.088 21.225 20.549 21.697.305.012.609.019.913.019 5.589 0 10.845-2.118 14.882-6.018a21.536 21.536 0 0 0 6.545-15.551l-.299-52.469c-.024-3.626 2.722-6.721 6.116-6.902a6.409 6.409 0 0 1 4.809 1.761 6.413 6.413 0 0 1 2.03 4.564l-.823 27.783a7.456 7.456 0 0 0-.003.259 21.526 21.526 0 0 0 6.72 15.471c4.306 4.066 9.938 6.137 15.868 5.825 11.455-.607 20.367-10.245 20.289-21.936l-.289-49.533a3.44 3.44 0 0 1 3.406-3.454l27.061-.16h.017a3.426 3.426 0 0 1 3.427 3.405l.475 81.223c-5.829 3.302-9.77 9.562-9.77 16.726v91.181c0 1.061.023 2.12.067 3.177l.006.131a74.239 74.239 0 0 0 19.581 47.106c11.028 11.987 25.516 19.951 41.347 22.848v56.41c0 12.992-2.105 25.344-6.258 36.711-2.024 5.539-2.803 11.371-2.314 17.343 1.624 19.759 17.769 35.7 37.557 37.081.982.068 1.96.102 2.933.102 10.323 0 20.052-3.817 27.657-10.91 8.202-7.652 12.905-18.473 12.905-29.687 0-4.022-.589-7.996-1.75-11.801-3.465-11.391-5.221-22.37-5.221-32.633 0-4.132-3.349-7.48-7.48-7.48s-7.48 3.348-7.48 7.48c0 11.739 1.975 24.183 5.871 36.991.73 2.396 1.101 4.9 1.101 7.443 0 7.186-2.894 13.844-8.151 18.747-5.256 4.902-12.128 7.314-19.345 6.825-12.478-.871-22.662-10.922-23.685-23.377-.31-3.798.18-7.494 1.455-10.988 4.756-13.016 7.167-27.094 7.167-41.844v-55.17h6.464c4.131 0 7.48-3.348 7.48-7.48s-3.349-7.48-7.48-7.48h-11.895a7.532 7.532 0 0 0-1.387-.256c-27.369-2.435-48.775-22.721-53.299-48.911H334.08c-4.523 26.19-25.929 46.476-53.298 48.911a7.481 7.481 0 0 0-6.817 7.452v34.104c0 4.132 3.349 7.48 7.48 7.48s7.48-3.348 7.48-7.48v-27.578c15.831-2.897 30.319-10.863 41.347-22.848a74.232 74.232 0 0 0 19.581-47.106l.006-.131c.045-1.056.067-2.114.067-3.177V191.27c0-6.476-5.082-11.788-11.47-12.165v-62c0-10.879 8.85-19.728 19.728-19.728h13.405c10.879 0 19.728 8.85 19.728 19.728v70.037c0 5.331 2.075 10.34 5.842 14.107s8.777 5.841 14.106 5.841c10.999 0 19.948-8.949 19.948-19.948v-63.833c0-1.07.553-1.782.882-2.111a2.975 2.975 0 0 1 2.11-.881 2.995 2.995 0 0 1 2.992 2.992v7.48c0 5.714 2.226 11.095 6.292 15.175 4.059 4.042 9.44 6.269 15.152 6.269 11.824 0 21.444-9.62 21.444-21.444V72.442h24.436a7.48 7.48 0 0 0 7.48-7.48V9.108a7.482 7.482 0 0 0-7.481-7.486zM334.963 284.881H177.376v-12.418h157.588v12.418zm0-27.378H177.376v-59.215a4.254 4.254 0 0 1 4.249-4.249h6.707l7.269 11.362a7.506 7.506 0 0 0 6.92 3.424 7.483 7.483 0 0 0 6.261-4.517l4.385-10.268h20.945l10.099 28.964a7.48 7.48 0 0 0 13.992.355l11.928-29.319h26.858l8.481 17.557a7.48 7.48 0 0 0 6.228 4.209 7.46 7.46 0 0 0 6.74-3.325l12.243-18.44h4.286v63.462h-.004z"/><path d="M275.12 126.296c12.924 0 23.439-10.514 23.439-23.439V78.92c0-4.132-3.349-7.48-7.48-7.48s-7.48 3.348-7.48 7.48v23.937c0 4.675-3.803 8.478-8.478 8.478s-8.478-3.803-8.478-8.478V39.024a7.48 7.48 0 0 0-7.48-7.48 7.48 7.48 0 0 0-7.48 7.48v63.833c-.002 12.924 10.513 23.439 23.437 23.439zM61.679 228.03c-12.375 0-22.441 10.068-22.441 22.441v13.963c0 12.374 10.067 22.441 22.441 22.441s22.441-10.068 22.441-22.441v-13.963c0-6.001-2.34-11.638-6.569-15.852a22.256 22.256 0 0 0-15.872-6.589zm7.48 36.404c0 4.125-3.355 7.48-7.48 7.48s-7.48-3.355-7.48-7.48v-13.963c0-4.125 3.355-7.48 7.48-7.48 1.995 0 3.867.777 5.292 2.207a7.392 7.392 0 0 1 2.188 5.273v13.963zm390.478-26.43c-11.274 0-20.446 9.172-20.446 20.446v49.87c0 11.274 9.172 20.446 20.446 20.446s20.447-9.172 20.447-20.446v-49.87a20.313 20.313 0 0 0-5.991-14.456 20.316 20.316 0 0 0-14.456-5.99zm5.486 70.316a5.492 5.492 0 0 1-5.486 5.486 5.492 5.492 0 0 1-5.486-5.486v-49.87a5.492 5.492 0 0 1 5.486-5.486 5.45 5.45 0 0 1 3.876 1.608 5.452 5.452 0 0 1 1.61 3.878v49.87zM214.279 91.387a7.48 7.48 0 0 0 7.48-7.48V54.983a7.48 7.48 0 0 0-7.48-7.48 7.48 7.48 0 0 0-7.48 7.48v28.924a7.48 7.48 0 0 0 7.48 7.48z"/></svg>