<svg xmlns="http://www.w3.org/2000/svg" viewBox="0 0 512 512"><path d="M436.109 92.994H145.37c-37.781 0-68.409 30.628-68.409 68.409v179.574h427.557V161.403c0-37.781-30.628-68.409-68.409-68.409z" fill="#cf442b"/><path d="M179.574 92.994H145.37c-37.781 0-68.409 30.628-68.409 68.409v179.574h34.205V161.403c-.001-37.781 30.627-68.409 68.408-68.409z" fill="#b83c26"/><path fill="#fff" d="M8.551 169.954h256.534v171.023H8.551z"/><path fill="#ebebec" d="M136.818 298.221L8.551 195.608v-25.654h256.535v25.654z"/><path fill="#fff" d="M136.818 272.568L8.551 169.954h256.535z"/><path d="M436.109 92.994H179.574c37.781 0 68.409 30.628 68.409 68.409v179.574h256.534V161.403c.001-37.781-30.627-68.409-68.408-68.409z" fill="#f58f6c"/><path fill="#88898e" d="M213.511 340.977H314.03v162.472H213.511z"/><path fill="#c3c4c6" d="M307.841 340.977h43.351v162.472h-43.351z"/><path fill="#f07b52" d="M42.756 452.142h171.023l34.204-111.165H76.96z"/><circle cx="367.699" cy="178.505" r="34.205" fill="#fdd042"/><circle cx="367.699" cy="178.505" r="17.102" fill="#e1a527"/><path fill="#fdd042" d="M367.699 7.482h68.409v34.205h-68.409z"/><path d="M503.983 195.073a8.016 8.016 0 0 0 8.017-8.017v-25.653c0-42.141-33.75-75.891-75.891-75.891h-60.927V50.238h60.927c4.428 0 7.482-4.123 7.482-8.551V7.482c0-4.428-3.054-7.482-7.482-7.482H367.7c-4.428 0-8.551 3.054-8.551 7.482v78.029H145.37c-42.141 0-76.96 33.75-76.96 75.891v1.069H8.551c-4.354 0-8.551 3.128-8.551 7.482v171.023c0 4.428 4.124 8.551 8.551 8.551h57.555l-31.013 100.79c-1.56 5.073 2.359 10.375 7.663 10.375h162.472v42.756c0 4.428 4.124 8.551 8.551 8.551h136.818c4.428 0 7.482-4.123 7.482-8.551v-153.92h146.438c4.428 0 7.482-4.123 7.482-8.551V221.261c0-4.428-3.588-8.017-8.017-8.017s-8.017 3.588-8.017 8.017v112.234H255.466V161.403c0-24.54-11.105-45.962-29.138-59.858h132.821v35.512c-19.24 3.757-33.937 20.909-33.937 41.448 0 23.281 19.074 42.221 42.355 42.221 23.281 0 42.021-18.941 42.021-42.221 0-20.54-14.097-37.691-34.406-41.448v-35.512h60.927c33.3 0 59.858 26.558 59.858 59.858v25.653a8.015 8.015 0 0 0 8.016 8.017zM427.557 34.205h-52.376V16.033h52.376v18.172zm-188.125 144.3v1.608c0 .27-.909.61-1.444 1.04L136.685 262.57l-105.28-84.064h208.027zm-223.399 8.128l115.51 92.194a7.899 7.899 0 0 0 9.882 0l98.007-78.511v133.179H16.033V186.633zm66.848 162.895h154.248l-29.271 95.132H53.61l29.271-95.132zm259.165 0v146.438h-26.722v-70.191a8.016 8.016 0 0 0-8.017-8.017 8.016 8.016 0 0 0-8.017 8.017v69.683c0-.012.181.508 0 .508h-78.029v-40.084c0-.63.187-.973.05-1.561l32.594-104.794h45.385v43.469a8.016 8.016 0 0 0 8.017 8.017 8.016 8.016 0 0 0 8.017-8.017v-43.469h26.722zM239.432 161.403v1.069H84.443v-1.069c0-33.3 27.627-59.858 60.927-59.858h34.205c33.299 0 59.857 26.558 59.857 59.858zm154.188 17.102c0 14.441-11.614 26.188-26.054 26.188s-26.389-11.747-26.389-26.188c0-11.645 8.351-21.534 17.971-24.928v24.928a8.016 8.016 0 0 0 8.017 8.017 8.016 8.016 0 0 0 8.017-8.017v-24.928c10.689 3.394 18.438 13.284 18.438 24.928z"/><path d="M316.392 299.29a8.016 8.016 0 0 0-8.017 8.017 8.016 8.016 0 0 0 8.017 8.017h111.165a8.016 8.016 0 0 0 8.017-8.017 8.016 8.016 0 0 0-8.017-8.017H316.392zm136.819 0a8.016 8.016 0 0 0-8.017 8.017 8.016 8.016 0 0 0 8.017 8.017h17.102a8.016 8.016 0 0 0 8.017-8.017 8.016 8.016 0 0 0-8.017-8.017h-17.102z"/></svg>