<svg xmlns="http://www.w3.org/2000/svg" viewBox="0 0 512.001 512.001" width="512" height="512"><path d="M494.192 180.541l-79.4-.107h-.01a7.639 7.639 0 0 0-7.637 7.626 7.638 7.638 0 0 0 7.626 7.647l27.453.037-44.797 52.483h-86.384l44.738-52.413h20.835a7.637 7.637 0 1 0 0-15.274H60.828a32.843 32.843 0 0 0 5.281-17.888c0-7.909-2.796-15.177-7.447-20.872l432.94-53.068a17.695 17.695 0 0 0 11.871-6.714 17.701 17.701 0 0 0 3.647-13.14l-6.443-52.564a17.695 17.695 0 0 0-6.713-11.871A17.683 17.683 0 0 0 480.823.776L109.343 46.31a7.636 7.636 0 0 0-6.651 8.508c.512 4.186 4.327 7.17 8.509 6.651l18.709-2.293-42.197 63.654-48.091 5.896-6.753-55.093a2.537 2.537 0 0 1 .52-1.877 2.527 2.527 0 0 1 1.696-.958l31.319-3.84a7.636 7.636 0 1 0-1.858-15.159l-31.319 3.84a17.695 17.695 0 0 0-11.871 6.713 17.698 17.698 0 0 0-3.647 13.14l6.771 55.24C10.399 134.518 0 147.391 0 162.652c0 15.598 10.862 28.697 25.418 32.154v125.627c0 4.218 3.419 7.637 7.637 7.637s7.637-3.418 7.637-7.637v-55.859h456.036v208.337c0 12.781-10.397 23.178-23.177 23.178H63.869c-12.78 0-23.177-10.397-23.177-23.178V356.974a7.637 7.637 0 1 0-15.274 0v115.937c0 21.201 17.249 38.451 38.45 38.451H473.55c21.201 0 38.45-17.249 38.45-38.451V198.359c0-9.825-7.993-17.818-17.808-17.818zM466.231 17.95l16.45-2.016a2.526 2.526 0 0 1 1.878.521c.31.242.847.785.958 1.695l6.443 52.564a2.533 2.533 0 0 1-.521 1.878 2.53 2.53 0 0 1-1.696.959l-64.855 7.95 40.186-60.626a7.577 7.577 0 0 0 1.157-2.925zM360.537 30.906l86.601-10.615-42.194 63.655-85.8 10.517 40.246-60.715a7.6 7.6 0 0 0 1.147-2.842zm-105.7 12.956l86.559-10.61-42.195 63.656-85.799 10.517 40.305-60.806c.572-.862.944-1.8 1.13-2.757zm-106.814 15.63a7.606 7.606 0 0 0 1.11-2.674l86.519-10.605-42.195 63.656-85.799 10.517 40.365-60.894zM33.054 180.433c-9.804 0-17.781-7.977-17.781-17.781 0-9.804 7.977-17.781 17.781-17.781s17.781 7.977 17.781 17.781c0 9.804-7.976 17.781-17.781 17.781zm7.637 67.793v-52.413h82.078l-44.737 52.413H40.691zm57.421.001l44.737-52.413h86.384l-44.737 52.413H98.112zm106.465-.001l44.737-52.413h86.385l-44.737 52.413h-86.385zm292.15 0h-79.22l44.775-52.456 31.9.043a2.549 2.549 0 0 1 2.546 2.546v49.867z" fill="#FFF"/><path d="M386.797 312.796H158.045a7.637 7.637 0 0 0-7.637 7.637 7.636 7.636 0 0 0 7.637 7.637h228.753a7.637 7.637 0 1 0-.001-15.274zm0 56.92H158.045a7.637 7.637 0 1 0 0 15.274h228.753a7.637 7.637 0 1 0-.001-15.274zm0 61.803H158.045a7.637 7.637 0 0 0-7.637 7.637 7.636 7.636 0 0 0 7.637 7.637h228.753a7.637 7.637 0 1 0-.001-15.274z" fill="#FFF"/></svg>