<svg xmlns="http://www.w3.org/2000/svg" width="705" height="758" viewBox="0 0 705 758"><path fill="#8C8C8C" d="M652.059 707.585H87.948c-23.432 0-42.428-18.996-42.428-42.428V327.069h648.967v338.089c0 23.43-18.996 42.427-42.428 42.427z"/><path opacity=".1" fill="#383838" d="M623.031 327.069v266.632c0 23.432-18.997 42.428-42.429 42.428H45.518v29.027c0 23.432 18.996 42.428 42.428 42.428h564.11c23.432 0 42.428-18.996 42.428-42.428V327.069h-71.453z"/><g fill="#FE9704"><path d="M694.487 367.769H45.518v-94.68h634.948c7.743 0 14.021 6.277 14.021 14.021v80.659zm-18.851-242.077L45.405 202.944l-10.576-86.295c-.942-7.686 4.523-14.68 12.21-15.62L663.354 25.48c7.686-.94 14.68 4.524 15.621 12.211l8.872 72.378c.94 7.687-4.524 14.681-12.211 15.623z"/><circle cx="45.518" cy="237.94" r="35"/></g><path opacity=".6" d="M257.959 367.388l80.489-94.298H191.853l-80.491 94.298zm146.596 0l80.49-94.298h146.598l-80.817 94.679zm-277.687-174.43l73.39-110.713 145.603-17.847-73.387 110.711zm291.208-35.696l73.387-110.711 145.604-17.849-73.387 110.714z" fill="#FF4432"/><path opacity=".6" d="M257.959 367.388l80.489-94.298H191.853l-80.491 94.298zm146.596 0l80.49-94.298h146.598l-80.817 94.679zm-277.687-174.43l73.39-110.713 145.603-17.847-73.387 110.711zm291.208-35.696l73.387-110.711 145.604-17.849-73.387 110.714z" fill="#FF4432"/><path opacity=".6" d="M257.959 367.388l80.489-94.298H191.853l-80.491 94.298zm146.596 0l80.49-94.298h146.598l-80.817 94.679zm-277.687-174.43l73.39-110.713 145.603-17.847-73.387 110.711zm291.208-35.696l73.387-110.711 145.604-17.849-73.387 110.714z" fill="#FF4432"/><path opacity=".6" d="M257.959 367.388l80.489-94.298H191.853l-80.491 94.298zm146.596 0l80.49-94.298h146.598l-80.817 94.679zm-277.687-174.43l73.39-110.713 145.603-17.847-73.387 110.711zm291.208-35.696l73.387-110.711 145.604-17.849-73.387 110.714z" fill="#FF4432"/><path opacity=".6" d="M257.959 367.388l80.489-94.298H191.853l-80.491 94.298zm146.596 0l80.49-94.298h146.598l-80.817 94.679zm-277.687-174.43l73.39-110.713 145.603-17.847-73.387 110.711zm291.208-35.696l73.387-110.711 145.604-17.849-73.387 110.714z" fill="#FF4432"/><path opacity=".6" d="M257.959 367.388l80.489-94.298H191.853l-80.491 94.298zm146.596 0l80.49-94.298h146.598l-80.817 94.679zm-277.687-174.43l73.39-110.713 145.603-17.847-73.387 110.711zm291.208-35.696l73.387-110.711 145.604-17.849-73.387 110.714z" fill="#FF4432"/><path opacity=".6" d="M257.959 367.388l80.489-94.298H191.853l-80.491 94.298zm146.596 0l80.49-94.298h146.598l-80.817 94.679zm-277.687-174.43l73.39-110.713 145.603-17.847-73.387 110.711zm291.208-35.696l73.387-110.711 145.604-17.849-73.387 110.714z" fill="#FF4432"/><path opacity=".6" d="M257.959 367.388l80.489-94.298H191.853l-80.491 94.298zm146.596 0l80.49-94.298h146.598l-80.817 94.679zm-277.687-174.43l73.39-110.713 145.603-17.847-73.387 110.711zm291.208-35.696l73.387-110.711 145.604-17.849-73.387 110.714z" fill="#FF4432"/><path opacity=".6" d="M257.959 367.388l80.489-94.298H191.853l-80.491 94.298zm146.596 0l80.49-94.298h146.598l-80.817 94.679zm-277.687-174.43l73.39-110.713 145.603-17.847-73.387 110.711zm291.208-35.696l73.387-110.711 145.604-17.849-73.387 110.714z" fill="#FF4432"/><path opacity=".6" d="M257.959 367.388l80.489-94.298H191.853l-80.491 94.298zm146.596 0l80.49-94.298h146.598l-80.817 94.679zm-277.687-174.43l73.39-110.713 145.603-17.847-73.387 110.711zm291.208-35.696l73.387-110.711 145.604-17.849-73.387 110.714z" fill="#FF4432"/><path fill="#191919" d="M680.482 262.575l-109.33-.147h-.014c-5.8 0-10.508 4.699-10.517 10.501-.007 5.808 4.694 10.521 10.501 10.529l37.802.051-61.685 72.268H428.293l61.604-72.17h28.688c5.808 0 10.517-4.707 10.517-10.517 0-5.809-4.708-10.516-10.517-10.516H83.761a45.226 45.226 0 0 0 7.271-24.633c0-10.892-3.851-20.898-10.254-28.738l596.137-73.072c6.506-.796 12.311-4.08 16.347-9.245 4.034-5.163 5.819-11.59 5.021-18.093l-8.872-72.378c-.797-6.508-4.079-12.313-9.243-16.346-5.162-4.036-11.587-5.825-18.095-5.021l-511.51 62.697c-5.765.707-9.865 5.951-9.158 11.716.705 5.764 5.958 9.872 11.717 9.157l25.762-3.157-58.103 87.647-66.219 8.117-9.299-75.859a3.493 3.493 0 0 1 .716-2.584 3.47 3.47 0 0 1 2.336-1.319l43.124-5.288c5.765-.706 9.864-5.951 9.158-11.715-.705-5.764-5.954-9.856-11.717-9.158L45.756 90.59a24.362 24.362 0 0 0-16.346 9.243c-4.036 5.164-5.82 11.591-5.022 18.093l9.323 76.063C14.322 199.203.004 216.928.004 237.942c0 21.479 14.956 39.516 34.999 44.274v172.982c0 5.809 4.708 10.516 10.516 10.516 5.81 0 10.516-4.706 10.516-10.516v-76.915h627.939v286.87c0 17.599-14.316 31.915-31.914 31.915H87.948c-17.598 0-31.914-14.316-31.914-31.915v-159.64c0-5.808-4.706-10.516-10.516-10.516-5.808 0-10.516 4.706-10.516 10.516v159.641c0 29.191 23.751 52.944 52.942 52.944h564.112c29.191 0 52.942-23.751 52.942-52.944V287.11c.003-13.529-11.003-24.535-24.516-24.535zm-43.942 20.97l43.926.059a3.51 3.51 0 0 1 3.506 3.507v68.664H574.89l61.65-72.23zm-320.892.061l-61.601 72.17H135.099l61.601-72.17h118.948zM107.45 355.774H56.033v-72.171h113.019l-61.602 72.171zm293.193 0H281.697l61.602-72.171h118.945l-61.601 72.171zM350.902 74.375l119.188-14.61-58.102 87.65-118.141 14.48 55.498-83.727a10.44 10.44 0 0 0 1.557-3.793zm88.548 69.675l55.417-83.602a10.486 10.486 0 0 0 1.579-3.913l119.245-14.616-58.099 87.648L439.45 144.05zM664.631 35.919a3.48 3.48 0 0 1 2.586.718 3.472 3.472 0 0 1 1.318 2.334l8.872 72.378c.154 1.254-.383 2.157-.718 2.586s-1.081 1.167-2.335 1.32l-89.303 10.946 55.335-83.479a10.462 10.462 0 0 0 1.594-4.029l22.651-2.774zM203.824 95.896a10.404 10.404 0 0 0 1.528-3.682L324.485 77.61l-58.1 87.651-118.141 14.482 55.58-83.847zM21.034 237.942c0-13.499 10.983-24.482 24.483-24.482C59.016 213.46 70 224.443 70 237.942c0 13.5-10.984 24.484-24.483 24.484-13.499.001-24.483-10.984-24.483-24.484z"/><path fill="#191919" d="M217.624 465.714h314.98c5.807 0 10.516-4.706 10.516-10.516 0-5.811-4.708-10.517-10.516-10.517h-314.98c-5.808 0-10.517 4.706-10.517 10.517.001 5.81 4.709 10.516 10.517 10.516zm0 78.377h314.98c5.807 0 10.516-4.706 10.516-10.516 0-5.811-4.708-10.517-10.516-10.517h-314.98c-5.808 0-10.517 4.706-10.517 10.517.001 5.81 4.709 10.516 10.517 10.516zm0 85.099h314.98c5.807 0 10.516-4.706 10.516-10.517 0-5.81-4.708-10.516-10.516-10.516h-314.98c-5.808 0-10.517 4.706-10.517 10.516.001 5.811 4.709 10.517 10.517 10.517z"/></svg>