<svg xmlns="http://www.w3.org/2000/svg" width="705" height="740" viewBox="0 152.5 705 740"><path fill="#FFF" d="M103.845 497.414h75.917v75.917h-75.917z"/><path fill="#FFF" d="M180.862 585.434h-77.017c-6.602 0-11.003-4.401-11.003-11.003v-75.917c0-6.602 4.401-11.003 11.003-11.003h75.917c6.602 0 11.003 4.401 11.003 11.003v75.917c1.099 5.501-4.401 11.003-9.903 11.003zm-66.015-22.005h53.912v-53.912h-53.912v53.912zm141.932-66.015h75.917v75.917h-75.917z"/><path fill="#FFF" d="M333.796 585.434h-75.917c-6.602 0-11.003-4.401-11.003-11.003v-75.917c0-6.602 4.401-11.003 11.003-11.003h75.917c6.601 0 11.002 4.401 11.002 11.003v75.917c0 5.501-5.502 11.003-11.002 11.003zm-66.015-22.005h53.912v-53.912h-53.912v53.912zm141.931-66.015h75.917v75.917h-75.917z"/><path fill="#FFF" d="M486.73 585.434h-75.917c-6.602 0-11.003-4.401-11.003-11.003v-75.917c0-6.602 4.401-11.003 11.003-11.003h75.917c6.602 0 11.003 4.401 11.003 11.003v75.917c0 5.501-5.503 11.003-11.003 11.003zm-66.016-22.005h53.912v-53.912h-53.912v53.912zm-86.918 66.015h-75.917c-6.602 0-11.003-4.401-11.003-11.002 0-6.602 4.401-11.003 11.003-11.003h75.917c6.601 0 11.002 4.401 11.002 11.003 0 6.601-5.502 11.002-11.002 11.002zm152.934 0h-75.917c-6.602 0-11.003-4.401-11.003-11.002 0-6.602 4.401-11.003 11.003-11.003h75.917c6.602 0 11.003 4.401 11.003 11.003 0 6.601-5.503 11.002-11.003 11.002zM230.373 349.982c-5.501 0-11.003-1.101-16.503-3.301-8.803-4.401-16.503-12.104-19.804-22.005-3.301-9.902-3.301-19.804 1.101-29.707 6.602-13.203 19.804-22.006 35.207-22.006 5.501 0 11.003 1.101 16.504 3.301 18.704 8.803 27.505 31.907 18.704 50.611-6.602 14.304-20.906 23.107-35.209 23.107zm0-55.013c-6.602 0-12.104 3.3-15.404 9.901-2.199 4.401-2.199 8.803 0 12.104 2.2 3.301 4.401 7.702 8.803 8.803 7.702 3.3 17.604 0 22.006-7.702 3.3-7.702 0-17.604-7.702-22.005-3.302 0-5.503-1.101-7.703-1.101zm308.068 91.321c-22.006 0-40.71-17.604-40.71-40.709 0-22.006 17.604-40.71 40.71-40.71 22.005 0 40.709 17.604 40.709 40.71 0 23.104-17.604 40.709-40.709 40.709zm0-58.314c-9.902 0-18.705 8.803-18.705 18.705 0 9.901 8.803 18.704 18.705 18.704 9.901 0 18.704-8.803 18.704-18.704 0-11.003-7.702-18.705-18.704-18.705zM426.333 871.498c0 6.076-4.926 11.002-11.003 11.002H243.576c-6.077 0-11.002-4.926-11.002-11.002 0-6.077 4.926-11.003 11.002-11.003H415.33c6.077 0 11.003 4.926 11.003 11.003z"/><path fill="#FFF" d="M380.901 871.498c0 6.076-4.926 11.002-11.004 11.002H198.143c-6.077 0-11.002-4.926-11.002-11.002 0-6.077 4.926-11.003 11.002-11.003h171.754c6.078 0 11.004 4.926 11.004 11.003zm-242.293 0c0 6.076 4.926 11.002 11.002 11.002h12.258c6.077 0 11.003-4.926 11.003-11.002 0-6.077-4.926-11.003-11.003-11.003H149.61c-6.076 0-11.002 4.926-11.002 11.003zm258.694-78.625c0 6.357-4.85 11.511-10.833 11.511H217.377c-5.983 0-10.833-5.153-10.833-11.511 0-6.357 4.85-11.511 10.833-11.511h169.092c5.983 0 10.833 5.153 10.833 11.511z"/><path fill="#FFF" d="M478.779 792.873c0 6.357-4.85 11.511-10.833 11.511H298.853c-5.983 0-10.833-5.153-10.833-11.511 0-6.357 4.85-11.511 10.833-11.511h169.092c5.984 0 10.834 5.153 10.834 11.511zm46.263 11.511h-9.94c-5.983 0-10.833-5.153-10.833-11.511 0-6.357 4.85-11.511 10.833-11.511h29.065M241.376 746.07c0 6.077-4.926 11.003-11.003 11.003s-11.003-4.926-11.003-11.003 4.926-11.003 11.003-11.003 11.003 4.926 11.003 11.003zm64.651 0c0 6.077-4.926 11.003-11.003 11.003s-11.003-4.926-11.003-11.003 4.926-11.003 11.003-11.003 11.003 4.926 11.003 11.003zm65.176 0c0 6.077-4.926 11.003-11.002 11.003-6.077 0-11.003-4.926-11.003-11.003s4.926-11.003 11.003-11.003 11.002 4.926 11.002 11.003z"/><g fill="#FFF"><path d="M579.149 689.958H11.423c-6.602 0-11.003 4.401-11.003 11.003v48.409c0 30.809 24.207 55.014 55.013 55.014h177.898l5.842-14.304c2.2-4.401 5.501-6.602 9.902-6.602h92.42c4.401 0 8.803 2.2 9.901 6.602l5.926 14.304h56.428V781.28H55.435c-18.705 0-33.008-14.304-33.008-33.008v-37.409h545.721v37.409c0 18.704-14.304 33.008-33.008 33.008l-13.421.083.781 23.021h12.64c29.707 0 55.013-25.307 55.011-55.014v-48.409c0-6.602-4.401-11.003-11.002-11.003z"/><path d="M356.901 860.495H232.573l23.104-56.111H233.33l-26.065 63.813c-1.099 3.301-1.099 6.602 1.101 9.902 2.202 2.201 5.502 4.4 8.803 4.4h156.235c6.602 0 11.002-4.4 12.1-8.802 0-3.301-1.1-4.401-2.2-6.602l-25.981-62.713h-23.528l23.106 56.113z"/></g><path d="M590.153 427.885L579.744 432l-11.597 9.609v247.249H22.425V370.886c0-18.705 14.304-33.008 33.008-33.008h63.359l-2.196-15.798 10.689-6.207h-71.85c-30.808 0-55.013 24.206-55.013 55.013v328.973c0 6.602 4.401 11.003 11.002 11.003H579.15c5.501 0 11.003-4.401 11.003-11.003m-184.909-361.98V329l14-10.5 5.657-2.626H321.48l10.973 22.005z" fill="#FFF"/><path fill="#FFF" d="M560.446 489.714h-42.909c-5.501 0-9.902-4.401-11.003-9.902l-3.301-24.205c-5.5-2.2-12.104-4.401-17.604-7.702l-18.705 15.404c-4.401 3.301-11.002 3.301-14.303-1.101l-29.707-29.707c-4.401-4.401-4.401-9.902-1.101-14.304l15.403-18.704c-3.3-5.501-5.5-11.003-7.701-17.604l-24.205-3.3c-5.501-1.102-9.902-5.501-9.902-11.003v-42.909c0-5.501 4.401-9.902 9.902-11.003l24.205-3.301c2.199-5.501 4.401-12.104 7.701-17.604l-15.403-18.705c-3.301-4.401-3.301-11.002 1.101-14.303l29.707-29.707c4.401-4.401 9.901-4.401 14.303-1.101l18.705 15.403c5.5-3.3 11.002-5.5 17.604-7.701l3.301-24.205c1.101-5.501 5.5-9.902 11.003-9.902h42.909c5.5 0 9.901 4.401 11.003 9.902l3.3 24.205c5.501 2.199 12.104 4.401 17.604 7.701l18.704-15.403c4.401-3.301 11.003-3.301 14.303 1.101l29.707 29.707c4.401 4.401 4.401 9.901 1.102 14.303l-15.404 19.804c3.301 5.501 5.501 11.003 7.702 17.604l24.205 3.301c5.5 1.101 9.901 5.5 9.901 11.002v42.91c0 5.5-4.401 9.901-9.901 11.002l-24.205 2.2c-2.2 5.501-4.401 12.104-7.702 17.604l15.404 18.705c3.301 4.401 3.301 11.002-1.101 14.303l-29.707 29.707c-4.401 4.401-9.902 4.401-14.304 1.101l-19.804-15.403c-5.501 3.301-11.003 5.5-17.604 7.702l-3.301 24.205a9.862 9.862 0 0 1-9.902 9.903zm-33.008-22.006h23.105l2.2-22.005c1.101-4.401 3.301-8.803 8.803-9.901 8.803-2.2 17.604-5.501 25.306-11.003 4.401-2.2 8.803-2.2 12.104 1.101l17.604 13.202 16.503-16.503-13.202-17.604c-3.301-3.301-3.301-8.803-1.101-12.104 4.401-7.702 8.803-16.503 11.002-25.306 1.102-4.401 4.401-7.702 9.902-8.803l22.005-2.2v-23.105l-22.005-2.2c-4.401-1.101-8.803-3.301-9.902-8.803-2.199-8.802-5.5-17.604-11.002-25.306-2.2-4.401-2.2-8.803 1.101-12.103l13.202-16.504-16.503-16.503-17.604 13.203c-3.301 3.3-8.803 3.3-12.104 1.101-7.702-4.401-16.503-8.803-25.306-11.003-4.401-1.101-7.702-4.401-8.803-9.901l-2.2-22.006h-23.105l-2.2 22.006c-1.101 4.4-3.301 8.802-8.803 9.901-8.802 2.2-17.604 5.501-25.306 11.003-4.401 2.199-8.803 2.199-12.103-1.101l-17.604-13.203-16.501 16.503 13.202 17.604c3.301 3.301 3.301 8.803 1.101 12.103-3.113 5.448-6.227 11.445-8.561 17.604-.966 2.549-1.798 5.125-2.442 7.702-1.101 4.401-4.4 7.702-9.901 8.803l-22.005 2.2v23.105l22.005 2.2c4.401 0 8.803 3.301 9.901 8.803 2.2 8.803 5.501 17.604 11.003 25.306 2.2 4.401 2.2 8.803-1.101 12.104l-13.202 17.604 16.503 16.504L479.028 427c3.301-3.301 8.803-3.301 12.104-1.101 7.702 4.401 16.503 8.803 25.306 11.003 4.401 1.101 7.702 4.401 8.803 9.901l2.197 20.905zm-272.86-23.106c-4.401 0-7.702-2.2-9.902-5.501l-9.901-19.804c-5.501 0-11.003 0-16.503-1.101l-12.104 18.705c-3.301 4.401-8.803 6.601-14.303 4.401L155.557 424.8c-5.501-2.199-7.702-7.702-5.501-13.202l6.602-20.904c-4.401-3.301-7.702-7.702-11.003-12.104l-22.005 5.501c-5.5 1.101-11.002-2.2-13.202-6.602L97.244 340.08c-2.199-5.5 0-11.002 5.501-13.202l19.804-9.902c0-5.5 0-11.002 1.101-16.503l-18.704-13.202c-4.401-3.301-6.602-8.803-4.401-14.304l16.503-36.308c2.2-5.501 7.702-7.702 13.202-5.501l20.905 6.602c3.3-4.401 7.701-7.702 12.103-11.003l-5.5-22.005c-1.101-5.501 2.199-11.003 6.601-13.203l37.409-13.202c5.501-2.2 11.003 0 13.203 5.501l11.002 19.804c5.501 0 11.003 0 16.503 1.101l12.104-18.705c3.301-4.4 8.803-6.601 14.303-4.4l36.309 16.503c5.501 2.199 7.702 7.701 5.501 13.202l-7.702 20.904c4.401 3.301 7.702 7.702 11.002 12.104l22.006-5.501c5.5-1.101 11.002 2.2 13.202 6.602l13.202 37.409c2.2 5.5 0 11.002-5.5 13.202l-19.804 9.902c0 5.5 0 11.002-1.101 16.503L354.7 334.58c4.401 3.3 6.602 8.802 4.401 14.303l-16.503 36.309c-2.2 5.5-7.702 7.701-13.203 5.5l-20.904-6.601c-3.301 4.401-7.702 7.701-12.103 11.002l5.5 22.005c1.101 5.501-2.2 11.003-6.601 13.203l-37.409 13.202c-1.099 1.099-2.2 1.099-3.3 1.099zm-14.302-48.41c4.4 0 7.701 2.2 9.901 5.5l8.803 17.604 18.704-6.602-4.401-18.704c-1.101-4.401 1.101-8.803 4.401-12.104 6.602-4.401 13.203-11.003 18.705-17.604 3.3-3.301 7.701-5.501 12.103-3.301l18.705 5.5 8.802-17.604-16.503-9.901c-4.401-2.2-5.5-6.602-5.5-11.003 1.101-8.803 2.199-16.503 1.101-25.306 0-4.401 2.199-8.803 5.5-11.003l17.604-8.803-6.602-18.704-18.704 4.401c-4.401 1.101-8.803-1.101-12.104-4.401-4.401-6.602-11.003-13.202-17.604-18.704-3.301-3.301-5.501-7.702-3.301-12.104l5.501-18.704-17.604-8.803-9.901 16.503c-2.2 4.401-6.602 5.501-11.003 5.501-8.803-1.102-16.503-2.2-25.306-1.102-4.401 0-8.803-2.199-11.003-5.5l-8.802-17.604-19.804 6.601 4.4 18.705c1.102 4.401-1.101 8.802-4.4 12.103-6.602 4.401-13.203 11.003-18.705 17.604-3.301 3.3-7.702 5.5-12.104 3.3l-18.705-5.496-8.803 17.604 16.503 9.902c4.401 2.2 5.501 6.602 5.501 11.003-1.102 8.802-2.2 16.503-1.102 25.306 0 4.401-2.199 8.802-5.5 11.002l-17.604 8.803 6.601 18.704 18.705-4.4c4.401-1.102 8.803 1.101 12.103 4.4 4.401 6.602 11.003 13.203 17.604 18.705 3.3 3.301 5.5 7.702 3.3 12.104l-5.5 18.704 17.604 8.803 9.902-16.503c2.199-4.401 6.601-5.501 11.002-5.501 8.803 1.101 16.504 2.2 25.306 1.101l2.204-.002zm-49.37 222.249c0 6.077-4.926 11.003-11.002 11.003h-41.651c-6.077 0-11.002-4.926-11.002-11.003 0-6.076 4.926-11.002 11.002-11.002h41.651c6.076 0 11.002 4.926 11.002 11.002zm-94.061-.174c0 5.979 4.848 10.827 10.828 10.827 5.98 0 10.828-4.848 10.828-10.827 0-5.98-4.848-10.828-10.828-10.828-5.98 0-10.828 4.848-10.828 10.828z"/></svg>