<svg xmlns="http://www.w3.org/2000/svg" width="705" height="740" viewBox="0 152.5 705 740"><circle fill="#FD7F34" cx="538.441" cy="344.48" r="166.138"/><path fill="#4C4C4C" d="M579.15 699.859V370.886c0-24.205-19.804-44.011-44.01-44.011H55.433c-24.205 0-44.01 19.804-44.01 44.011v328.973H579.15z"/><path fill="#383838" d="M579.15 710.862H11.424c-6.601 0-11.002-4.401-11.002-11.003V370.886c0-30.807 24.205-55.013 55.013-55.013H535.14c30.806 0 55.013 24.205 55.013 55.013v328.973c0 6.602-5.502 11.003-11.003 11.003zM22.427 688.857h545.721V370.886c0-18.705-14.304-33.008-33.008-33.008H55.433c-18.704 0-33.008 14.303-33.008 33.008v317.971h.002z"/><path d="M55.433 370.886H535.14v284.963H55.433zM11.424 699.859v42.812c0 21.406 19.42 38.921 43.158 38.921h478.793c26.25 0 34.772-21.83 34.772-30.455V699.86H11.424z" fill="#FFF"/><path fill="#FFF" d="M103.845 497.414h75.917v75.917h-75.917z"/><path fill="#FD7F34" d="M180.862 585.434h-77.017c-6.602 0-11.003-4.401-11.003-11.003v-75.917c0-6.602 4.401-11.003 11.003-11.003h75.917c6.602 0 11.003 4.401 11.003 11.003v75.917c1.099 5.501-4.401 11.003-9.903 11.003zm-66.015-22.005h53.912v-53.912h-53.912v53.912z"/><path fill="#FFF" d="M256.779 497.414h75.917v75.917h-75.917z"/><path fill="#007AFF" d="M333.796 585.434h-75.917c-6.602 0-11.003-4.401-11.003-11.003v-75.917c0-6.602 4.401-11.003 11.003-11.003h75.917c6.601 0 11.002 4.401 11.002 11.003v75.917c0 5.501-5.502 11.003-11.002 11.003zm-66.015-22.005h53.912v-53.912h-53.912v53.912z"/><path fill="#FFF" d="M409.712 497.414h75.917v75.917h-75.917z"/><path fill="#FD7F34" d="M486.73 585.434h-75.917c-6.602 0-11.003-4.401-11.003-11.003v-75.917c0-6.602 4.401-11.003 11.003-11.003h75.917c6.602 0 11.003 4.401 11.003 11.003v75.917c0 5.501-5.503 11.003-11.003 11.003zm-66.016-22.005h53.912v-53.912h-53.912v53.912z"/><path fill="#007AFF" d="M333.796 629.444h-75.917c-6.602 0-11.003-4.401-11.003-11.002 0-6.602 4.401-11.003 11.003-11.003h75.917c6.601 0 11.002 4.401 11.002 11.003 0 6.601-5.502 11.002-11.002 11.002z"/><path fill="#FD7F34" d="M486.73 629.444h-75.917c-6.602 0-11.003-4.401-11.003-11.002 0-6.602 4.401-11.003 11.003-11.003h75.917c6.602 0 11.003 4.401 11.003 11.003 0 6.601-5.503 11.002-11.003 11.002z"/><path fill="#FFF" d="M333.796 380.788l16.503-36.308-25.306-14.304c2.2-9.901 2.2-19.804 1.101-28.606l26.406-13.202-13.202-37.409-28.606 6.602c-5.501-7.702-12.104-15.404-19.804-20.904l8.803-27.506-36.312-16.503-14.303 24.205c-9.902-2.2-19.804-2.2-28.606-1.101l-13.202-26.407-37.409 13.203 6.602 28.606c-7.702 5.5-15.404 12.103-20.904 19.804l-28.606-8.803-16.504 36.311 25.306 15.404c-2.199 9.901-2.199 19.804-1.101 28.606l-26.406 13.202 13.203 37.409 28.605-6.602c5.501 7.702 12.104 15.404 19.805 20.904l-8.803 27.506 36.308 16.504 15.404-25.307c9.901 2.2 19.804 2.2 28.606 1.101l13.202 26.407 37.409-13.203-6.602-28.606c7.702-5.5 15.404-12.103 20.904-19.804l27.509 8.801z"/><path fill="#4C4C4C" d="M254.578 444.602c-4.401 0-7.702-2.2-9.902-5.501l-9.901-19.804c-5.501 0-11.003 0-16.503-1.101l-12.104 18.705c-3.301 4.401-8.803 6.601-14.303 4.401L155.557 424.8c-5.501-2.199-7.702-7.702-5.501-13.202l6.602-20.904c-4.401-3.301-7.702-7.702-11.003-12.104l-22.005 5.501c-5.5 1.101-11.002-2.2-13.202-6.602L97.244 340.08c-2.199-5.5 0-11.002 5.501-13.202l19.804-9.902c0-5.5 0-11.002 1.101-16.503l-18.704-13.202c-4.401-3.301-6.602-8.803-4.401-14.304l16.503-36.308c2.2-5.501 7.702-7.702 13.202-5.501l20.905 6.602c3.3-4.401 7.701-7.702 12.103-11.003l-5.5-22.005c-1.101-5.501 2.199-11.003 6.601-13.203l37.409-13.202c5.501-2.2 11.003 0 13.203 5.501l11.002 19.804c5.501 0 11.003 0 16.503 1.101l12.104-18.705c3.301-4.4 8.803-6.601 14.303-4.4l36.309 16.503c5.501 2.199 7.702 7.701 5.501 13.202l-7.702 20.904c4.401 3.301 7.702 7.702 11.002 12.104l22.006-5.501c5.5-1.101 11.002 2.2 13.202 6.602l13.202 37.409c2.2 5.5 0 11.002-5.5 13.202l-19.804 9.902c0 5.5 0 11.002-1.101 16.503L354.7 334.58c4.401 3.3 6.602 8.802 4.401 14.303l-16.503 36.309c-2.2 5.5-7.702 7.701-13.203 5.5l-20.904-6.601c-3.301 4.401-7.702 7.701-12.103 11.002l5.5 22.005c1.101 5.501-2.2 11.003-6.601 13.203l-37.409 13.202c-1.099 1.099-2.2 1.099-3.3 1.099zm-14.302-48.41c4.4 0 7.701 2.2 9.901 5.5l8.803 17.604 18.704-6.602-4.401-18.704c-1.101-4.401 1.101-8.803 4.401-12.104 6.602-4.401 13.203-11.003 18.705-17.604 3.3-3.301 7.701-5.501 12.103-3.301l18.705 5.5 8.802-17.604-16.503-9.901c-4.401-2.2-5.5-6.602-5.5-11.003 1.101-8.803 2.199-16.503 1.101-25.306 0-4.401 2.199-8.803 5.5-11.003l17.604-8.803-6.602-18.704-18.704 4.401c-4.401 1.101-8.803-1.101-12.104-4.401-4.401-6.602-11.003-13.202-17.604-18.704-3.301-3.301-5.501-7.702-3.301-12.104l5.501-18.704-17.604-8.803-9.901 16.503c-2.2 4.401-6.602 5.501-11.003 5.501-8.803-1.102-16.503-2.2-25.306-1.102-4.401 0-8.803-2.199-11.003-5.5l-8.802-17.604-19.804 6.601 4.4 18.705c1.102 4.401-1.101 8.802-4.4 12.103-6.602 4.401-13.203 11.003-18.705 17.604-3.301 3.3-7.702 5.5-12.104 3.3l-18.705-5.496-8.803 17.604 16.503 9.902c4.401 2.2 5.501 6.602 5.501 11.003-1.102 8.802-2.2 16.503-1.102 25.306 0 4.401-2.199 8.802-5.5 11.002l-17.604 8.803 6.601 18.704 18.705-4.4c4.401-1.102 8.803 1.101 12.103 4.4 4.401 6.602 11.003 13.203 17.604 18.705 3.3 3.301 5.5 7.702 3.3 12.104l-5.5 18.704 17.604 8.803 9.902-16.503c2.199-4.401 6.601-5.501 11.002-5.501 8.803 1.101 16.504 2.2 25.306 1.101l2.204-.002z"/><circle fill="#007AFF" cx="230.373" cy="311.472" r="69.316"/><circle fill="#FFF" cx="230.373" cy="311.472" r="27.506"/><path fill="#4C4C4C" d="M230.373 349.982c-5.501 0-11.003-1.101-16.503-3.301-8.803-4.401-16.503-12.104-19.804-22.005-3.301-9.902-3.301-19.804 1.101-29.707 6.602-13.203 19.804-22.006 35.207-22.006 5.501 0 11.003 1.101 16.504 3.301 18.704 8.803 27.505 31.907 18.704 50.611-6.602 14.304-20.906 23.107-35.209 23.107zm0-55.013c-6.602 0-12.104 3.3-15.404 9.901-2.199 4.401-2.199 8.803 0 12.104 2.2 3.301 4.401 7.702 8.803 8.803 7.702 3.3 17.604 0 22.006-7.702 3.3-7.702 0-17.604-7.702-22.005-3.302 0-5.503-1.101-7.703-1.101z"/><path fill="#FFF" d="M671.571 367.586v-42.909l-31.907-3.301c-2.2-9.902-6.602-19.804-12.104-28.606l19.804-25.306-29.707-29.707-25.304 19.805c-8.803-5.5-18.705-8.803-28.606-12.103l-3.301-31.907h-42.91l-3.3 31.907c-9.902 2.199-19.804 6.601-28.606 12.103l-25.306-19.804-29.706 29.706 19.804 25.306c-5.5 8.803-8.803 18.704-12.103 28.606l-31.907 3.301v42.909l31.907 3.301c2.199 9.901 6.601 19.804 12.103 28.606l-19.804 25.306 29.707 29.707 25.306-19.804c8.803 5.501 18.705 8.803 28.606 12.104l3.301 31.906h42.909l3.301-31.906c9.902-2.2 19.804-6.602 28.606-12.104l25.306 19.804 29.707-29.707-19.804-25.306c5.501-8.803 8.803-18.705 12.104-28.606l31.904-3.301z"/><path fill="#4C4C4C" d="M560.446 489.714h-42.909c-5.501 0-9.902-4.401-11.003-9.902l-3.301-24.205c-5.5-2.2-12.104-4.401-17.604-7.702l-18.705 15.404c-4.401 3.301-11.002 3.301-14.303-1.101l-29.707-29.707c-4.401-4.401-4.401-9.902-1.101-14.304l15.403-18.704c-3.3-5.501-5.5-11.003-7.701-17.604l-24.205-3.3c-5.501-1.102-9.902-5.501-9.902-11.003v-42.909c0-5.501 4.401-9.902 9.902-11.003l24.205-3.301c2.199-5.501 4.401-12.104 7.701-17.604l-15.403-18.705c-3.301-4.401-3.301-11.002 1.101-14.303l29.707-29.707c4.401-4.401 9.901-4.401 14.303-1.101l18.705 15.403c5.5-3.3 11.002-5.5 17.604-7.701l3.301-24.205c1.101-5.501 5.5-9.902 11.003-9.902h42.909c5.5 0 9.901 4.401 11.003 9.902l3.3 24.205c5.501 2.199 12.104 4.401 17.604 7.701l18.704-15.403c4.401-3.301 11.003-3.301 14.303 1.101l29.707 29.707c4.401 4.401 4.401 9.901 1.102 14.303l-15.404 19.804c3.301 5.501 5.501 11.003 7.702 17.604l24.205 3.301c5.5 1.101 9.901 5.5 9.901 11.002v42.91c0 5.5-4.401 9.901-9.901 11.002l-24.205 2.2c-2.2 5.501-4.401 12.104-7.702 17.604l15.404 18.705c3.301 4.401 3.301 11.002-1.101 14.303l-29.707 29.707c-4.401 4.401-9.902 4.401-14.304 1.101l-19.804-15.403c-5.501 3.301-11.003 5.5-17.604 7.702l-3.301 24.205a9.862 9.862 0 0 1-9.902 9.903zm-33.008-22.006h23.105l2.2-22.005c1.101-4.401 3.301-8.803 8.803-9.901 8.803-2.2 17.604-5.501 25.306-11.003 4.401-2.2 8.803-2.2 12.104 1.101l17.604 13.202 16.503-16.503-13.202-17.604c-3.301-3.301-3.301-8.803-1.101-12.104 4.401-7.702 8.803-16.503 11.002-25.306 1.102-4.401 4.401-7.702 9.902-8.803l22.005-2.2v-23.105l-22.005-2.2c-4.401-1.101-8.803-3.301-9.902-8.803-2.199-8.802-5.5-17.604-11.002-25.306-2.2-4.401-2.2-8.803 1.101-12.103l13.202-16.504-16.503-16.503-17.604 13.203c-3.301 3.3-8.803 3.3-12.104 1.101-7.702-4.401-16.503-8.803-25.306-11.003-4.401-1.101-7.702-4.401-8.803-9.901l-2.2-22.006h-23.105l-2.2 22.006c-1.101 4.4-3.301 8.802-8.803 9.901-8.802 2.2-17.604 5.501-25.306 11.003-4.401 2.199-8.803 2.199-12.103-1.101l-17.604-13.203-16.501 16.503 13.202 17.604c3.301 3.301 3.301 8.803 1.101 12.103-4.401 7.702-8.803 16.504-11.003 25.306-1.101 4.401-4.4 7.702-9.901 8.803l-22.005 2.2v23.105l22.005 2.2c4.401 0 8.803 3.301 9.901 8.803 2.2 8.803 5.501 17.604 11.003 25.306 2.2 4.401 2.2 8.803-1.101 12.104l-13.202 17.604 16.503 16.504L479.028 427c3.301-3.301 8.803-3.301 12.104-1.101 7.702 4.401 16.503 8.803 25.306 11.003 4.401 1.101 7.702 4.401 8.803 9.901l2.197 20.905z"/><circle fill="#E0E4E8" cx="538.441" cy="346.681" r="73.716"/><circle fill="#FFF" cx="538.441" cy="346.681" r="29.707"/><path fill="#4C4C4C" d="M538.441 386.29c-22.006 0-40.71-17.604-40.71-40.709 0-22.006 17.604-40.71 40.71-40.71 22.005 0 40.709 17.604 40.709 40.71 0 23.104-17.604 40.709-40.709 40.709zm0-58.314c-9.902 0-18.705 8.803-18.705 18.705 0 9.901 8.803 18.704 18.705 18.704 9.901 0 18.704-8.803 18.704-18.704 0-11.003-7.702-18.705-18.704-18.705z"/><path fill="#383838" d="M426.333 871.498c0 6.076-4.926 11.002-11.003 11.002H243.576c-6.077 0-11.002-4.926-11.002-11.002 0-6.077 4.926-11.003 11.002-11.003H415.33c6.077 0 11.003 4.926 11.003 11.003z"/><path fill="#383838" d="M378.203 871.498c0 6.076-4.926 11.002-11.003 11.002H195.446c-6.077 0-11.002-4.926-11.002-11.002 0-6.077 4.926-11.003 11.002-11.003H367.2c6.078 0 11.003 4.926 11.003 11.003zm-240.595 0c0 6.076 4.926 11.002 11.002 11.002h12.258c6.077 0 11.003-4.926 11.003-11.002 0-6.077-4.926-11.003-11.003-11.003H148.61c-6.076 0-11.002 4.926-11.002 11.003zm259.694-78.625c0 6.357-4.85 11.511-10.833 11.511H217.377c-5.983 0-10.833-5.153-10.833-11.511 0-6.357 4.85-11.511 10.833-11.511h169.092c5.983 0 10.833 5.153 10.833 11.511z"/><path fill="#383838" d="M480.583 792.873c0 6.357-4.85 11.511-10.833 11.511H300.658c-5.983 0-10.833-5.153-10.833-11.511 0-6.357 4.85-11.511 10.833-11.511H469.75c5.984 0 10.833 5.153 10.833 11.511zm44.459 11.511h-9.94c-5.983 0-10.833-5.153-10.833-11.511 0-6.357 4.85-11.511 10.833-11.511h29.065M241.376 746.07c0 6.077-4.926 11.003-11.003 11.003s-11.003-4.926-11.003-11.003 4.926-11.003 11.003-11.003 11.003 4.926 11.003 11.003zm64.651 0c0 6.077-4.926 11.003-11.003 11.003s-11.003-4.926-11.003-11.003 4.926-11.003 11.003-11.003 11.003 4.926 11.003 11.003zm65.176 0c0 6.077-4.926 11.003-11.002 11.003-6.077 0-11.003-4.926-11.003-11.003s4.926-11.003 11.003-11.003 11.002 4.926 11.002 11.003z"/><g fill="#383838"><path d="M579.149 689.958H11.423c-6.602 0-11.003 4.401-11.003 11.003v48.409c0 30.809 24.207 55.014 55.013 55.014h177.898l5.842-14.304c2.2-4.401 5.501-6.602 9.902-6.602h92.42c4.401 0 8.803 2.2 9.901 6.602l5.926 14.304h56.428V781.28H55.435c-18.705 0-33.008-14.304-33.008-33.008v-37.409h545.721v37.409c0 18.704-14.304 33.008-33.008 33.008l-13.421.083.781 23.021h12.64c29.707 0 55.013-25.307 55.011-55.014v-48.409c0-6.602-4.401-11.003-11.002-11.003z"/><path d="M356.901 860.495H232.573l23.104-56.111H233.33l-26.065 63.813c-1.099 3.301-1.099 6.602 1.101 9.902 2.202 2.201 5.502 4.4 8.803 4.4h156.235c6.602 0 11.002-4.4 12.1-8.802 0-3.301-1.1-4.401-2.2-6.602l-25.981-62.713h-23.528l23.106 56.113z"/></g><path fill="#FD7F34" d="M92.829 618.441c0 6.077 4.926 11.003 11.002 11.003 6.077 0 11.002-4.926 11.002-11.003 0-6.076-4.926-11.002-11.002-11.002-6.076 0-11.002 4.926-11.002 11.002zm34.338 0c0 6.077 4.926 11.003 11.002 11.003h39.591c6.077 0 11.002-4.926 11.002-11.003 0-6.076-4.926-11.002-11.002-11.002h-39.591c-6.076 0-11.002 4.926-11.002 11.002z"/></svg>