<?xml version="1.0" encoding="utf-8"?>
<!-- Generator: Adobe Illustrator 16.0.0, SVG Export Plug-In . SVG Version: 6.00 Build 0)  -->
<!DOCTYPE svg PUBLIC "-//W3C//DTD SVG 1.1//EN" "http://www.w3.org/Graphics/SVG/1.1/DTD/svg11.dtd">
<svg version="1.1" id="Camada_1" xmlns="http://www.w3.org/2000/svg" xmlns:xlink="http://www.w3.org/1999/xlink" x="0px" y="0px"
	 width="705px" height="1060px" viewBox="0 0 705 1060" enable-background="new 0 0 705 1060" xml:space="preserve">
<g>
	<path fill-rule="evenodd" clip-rule="evenodd" fill="#FFFFFF" d="M2,1061c-0.308-0.218-1.043,0.506-1.011-0.5
		c0.043-1.332,0.011-2.667,0.011-4C1,706.167,1.007,355.833,0.907,5.5C0.906,1.751,1.751,0.905,5.5,0.906c232,0.104,464,0.104,696,0
		c3.749-0.001,4.61,0.843,4.598,4.594C705.945,49.666,706,93.833,706,138c-1.477,1.924-3.588,2.237-5.806,2.314
		c-3.331,0.115-6.664,0.08-9.996,0.08c-192.11,0.003-384.222,0.002-576.333,0.003c-12.526,0-12.456,0.047-8.683,11.909
		c16.762,52.7,34.258,105.169,49.871,158.233c3.573,12.143,7.47,24.19,11.083,36.324c1.949,6.544,3.525,7.694,10.368,7.709
		c30.991,0.063,61.982,0.057,92.973,0.003c7.209-0.012,8.262-1.559,6.1-8.479c-9.787-31.321-19.667-62.613-29.313-93.979
		c-0.44-1.433-0.956-2.846-1.199-4.331c-0.556-3.396,0.673-5.503,4.278-5.91c2.325-0.263,4.657-0.265,6.989-0.265
		c146.458-0.013,292.916-0.02,439.373,0.039c3.537,0.002,7.444-0.95,10.295,2.349c0,56.333,0,112.667,0,169
		c-1.477,1.924-3.588,2.237-5.806,2.314c-3.331,0.115-6.664,0.08-9.996,0.08c-192.11,0.003-384.222,0.002-576.333,0.003
		c-12.526,0-12.455,0.047-8.682,11.909c16.762,52.701,34.258,105.17,49.871,158.233c3.573,12.144,7.471,24.191,11.083,36.325
		c1.948,6.543,3.525,7.693,10.368,7.708c30.991,0.063,61.982,0.057,92.973,0.003c7.209-0.012,8.262-1.559,6.099-8.479
		c-9.786-31.321-19.667-62.614-29.313-93.979c-0.44-1.432-0.956-2.846-1.199-4.33c-0.556-3.396,0.673-5.503,4.279-5.91
		c2.325-0.263,4.657-0.265,6.989-0.265c146.458-0.013,292.915-0.02,439.372,0.039c3.538,0.002,7.444-0.95,10.295,2.349
		c0,78.333,0,156.667,0,235c-1.346,1.749-3.246,2.178-5.311,2.281c-2.831,0.143-5.664,0.122-8.496,0.123
		c-60.658,0.004-121.316,0.002-181.975,0.003c-2.166,0.001-4.334-0.055-6.498,0.048c-5.545,0.263-7.15,1.739-7.244,7.297
		c-0.178,10.663-0.15,21.33-0.015,31.994c0.077,6.08,1.71,7.74,7.796,7.791c17.497,0.146,34.994,0.024,52.492,0.063
		c13.549,0.029,13.644,0.1,13.646,13.626c0.019,77.655,0.031,155.311-0.045,232.966c-0.004,3.693,1.053,7.784-2.352,10.808
		c-27.666,0-55.334,0-83,0c-3.44-2.528-4.539-6.502-6.092-10.135c-15.51-36.309-31.139-72.565-46.646-108.875
		c-0.654-1.532-1.245-3.09-1.882-4.626c-1.666-4.015-0.797-6.953,3.02-9.309c27.471-16.953,37.977-43.006,39.176-73.869
		c0.551-14.192-0.061-28.274-4.57-41.996c-9.528-28.997-30.014-45.578-59.015-52.551c-10.232-2.46-20.669-3.348-31.224-3.302
		c-28.998,0.123-57.997,0.029-86.996,0.05c-8.851,0.006-9.382,0.527-9.384,9.326c-0.017,94.829,0.01,189.659-0.061,284.489
		c-0.003,3.687,1.143,7.787-2.327,10.797c-9.333,0-18.667,0-28,0c-2.505-1.389-3.677-3.687-4.504-6.312
		c-10.361-32.88-20.665-65.778-31.025-98.659c-6.407-20.333-12.794-40.673-19.199-61.007
		c-13.911-44.16-27.891-88.299-41.599-132.522c-1.362-4.393-3.637-6.229-8.208-6.185c-13.661,0.133-27.325,0.14-40.986-0.003
		c-4.615-0.048-6.82,1.894-8.164,6.245c-9.335,30.235-18.881,60.404-28.269,90.623c-14.031,45.169-28.245,90.281-42.26,135.455
		c-6.761,21.791-13.694,43.529-20.376,65.346C5.562,1056.751,4.435,1059.266,2,1061z"/>
	<path fill-rule="evenodd" clip-rule="evenodd" fill="#FFFFFF" d="M631,1061c-0.07-1.827-0.203-3.654-0.203-5.48
		c-0.01-81.106-0.009-162.212-0.008-243.318c0-6.551,0.006-6.559,6.304-6.561c21.151-0.003,42.302-0.01,63.452,0.015
		c1.818,0.002,3.637,0.225,5.455,0.345c0,83.667-0.027,167.333,0.096,251c0.006,3.424-0.668,4.129-4.097,4.102
		C678.334,1060.909,654.666,1061,631,1061z"/>
	<path fill-rule="evenodd" clip-rule="evenodd" fill="#FFFFFF" d="M67,1061c5.011-18.785,10.259-37.513,14.881-56.393
		c1.284-5.246,3.342-6.693,8.646-6.624c24.31,0.32,48.627,0.217,72.941,0.06c3.65-0.024,5.132,1.019,6.043,4.665
		c4.635,18.55,9.604,37.017,14.476,55.508c0.25,0.951,0.671,1.857,1.013,2.784C145.667,1061,106.333,1061,67,1061z"/>
	<path fill-rule="evenodd" clip-rule="evenodd" fill="#FFFFFF" d="M341,1061c-0.01-35.796,0.029-71.592-0.106-107.387
		c-0.014-3.576,0.682-5.004,4.601-4.815c6.977,0.336,13.994,0.351,20.969-0.006c3.946-0.201,5.781,1.08,7.282,4.772
		c14.275,35.111,28.766,70.136,43.199,105.182c0.314,0.767,0.701,1.504,1.055,2.254C392.334,1061,366.666,1061,341,1061z"/>
	<path fill-rule="evenodd" clip-rule="evenodd" fill="#FFFFFF" d="M340.971,850.974c0-13.649,0.114-27.3-0.078-40.946
		c-0.05-3.526,1.048-4.524,4.5-4.458c10.483,0.2,20.973-0.019,31.458,0.096c19.371,0.212,30.365,9.031,34.461,27.95
		c2.783,12.858,2.943,25.792-1.033,38.479c-5.197,16.578-16.406,24.782-33.741,24.916c-10.485,0.081-20.976-0.104-31.458,0.091
		c-3.271,0.061-4.22-0.917-4.181-4.183C341.067,878.938,340.971,864.956,340.971,850.974z"/>
	<path fill-rule="evenodd" clip-rule="evenodd" fill="#FFFFFF" d="M125.799,839.128c1.708,2.542,1.919,5.205,2.569,7.676
		c8.245,31.325,16.376,62.682,24.757,93.97c1.153,4.303,0.884,5.791-4.124,5.695c-15.633-0.298-31.276-0.139-46.916-0.084
		c-2.829,0.011-4.914,0.004-3.858-3.974c8.986-33.879,17.859-67.788,26.778-101.685
		C125.115,840.313,125.389,839.942,125.799,839.128z"/>
</g>
</svg>
