<?xml version="1.0" encoding="utf-8"?>
<!-- Generator: Adobe Illustrator 16.0.0, SVG Export Plug-In . SVG Version: 6.00 Build 0)  -->
<!DOCTYPE svg PUBLIC "-//W3C//DTD SVG 1.1//EN" "http://www.w3.org/Graphics/SVG/1.1/DTD/svg11.dtd">
<svg version="1.1" id="Capa_1" xmlns="http://www.w3.org/2000/svg" xmlns:xlink="http://www.w3.org/1999/xlink" x="0px" y="0px"
	 width="705px" height="744px" viewBox="0 154.5 705 744" enable-background="new 0 154.5 705 744" xml:space="preserve">
<g>
	<path fill="#FFFFFF" d="M154.79,424.171V635.83l197.71,93.044l197.709-93.044V424.171L352.5,331.126L154.79,424.171z
		 M513.425,431.146L352.5,506.879l-160.925-75.733L352.5,355.411L513.425,431.146z M176.758,448.456l164.758,77.535v173.425
		l-164.758-77.535V448.456z M363.484,699.416V525.99l164.758-77.535v173.425L363.484,699.416z"/>
	<polygon fill="#FFFFFF" points="484.306,588.928 380.782,637.653 390.13,657.535 506.275,602.879 506.275,486.065 484.306,486.065 
			"/>
	<path fill="#FFFFFF" d="M522.497,234.907c-6.568-3.801-13.39-7.437-20.276-10.797l-9.677,19.705
		c6.437,3.164,12.817,6.568,18.97,10.116L522.497,234.907z"/>
	<path fill="#FFFFFF" d="M121.838,365.242c36.346,0,65.904-29.557,65.904-65.903c0-12.983-3.822-25.065-10.326-35.269
		c52.02-34.326,112.365-52.603,175.083-52.603c41.903,0,82.643,8.007,121.086,23.813l8.359-20.32
		C440.832,198.068,397.281,189.5,352.5,189.5c-68.177,0-133.773,20.133-190.032,58.061c-11.204-8.82-25.296-14.125-40.63-14.125
		c-36.345,0-65.903,29.557-65.903,65.903C55.935,335.685,85.493,365.242,121.838,365.242z M121.838,255.404
		c24.231,0,43.936,19.705,43.936,43.935s-19.705,43.935-43.936,43.935c-24.23,0-43.935-19.705-43.935-43.935
		S97.608,255.404,121.838,255.404z"/>
	<rect x="110.855" y="288.355" fill="#FFFFFF" width="21.967" height="21.968"/>
	<path fill="#FFFFFF" d="M76.432,370.987l-19.024-10.984c-3.823,6.634-7.459,13.456-10.797,20.265l19.727,9.677
		C69.457,383.574,72.861,377.193,76.432,370.987z"/>
	<path fill="#FFFFFF" d="M121.838,694.759c-12.983,0-25.053,3.822-35.269,10.325C52.234,653.052,33.967,592.719,33.967,530
		c0-41.925,8.008-82.664,23.813-121.075l-20.32-8.37C20.568,441.635,12,485.197,12,530c0,68.178,20.133,133.772,58.06,190.032
		c-8.82,11.204-14.125,25.296-14.125,40.63c0,36.345,29.558,65.903,65.903,65.903c36.346,0,65.904-29.559,65.904-65.903
		C187.742,724.316,158.184,694.759,121.838,694.759z M121.838,804.596c-24.23,0-43.935-19.705-43.935-43.935
		c0-24.231,19.705-43.937,43.935-43.937c24.231,0,43.936,19.705,43.936,43.937C165.774,784.891,146.069,804.596,121.838,804.596z"/>
	<rect x="110.855" y="749.677" fill="#FFFFFF" width="21.967" height="21.968"/>
	<path fill="#FFFFFF" d="M182.503,825.094c6.568,3.8,13.388,7.436,20.275,10.797l9.677-19.716
		c-6.437-3.163-12.818-6.568-18.969-10.116L182.503,825.094z"/>
	<path fill="#FFFFFF" d="M583.161,694.759c-36.346,0-65.903,29.558-65.903,65.903c0,12.982,3.822,25.064,10.325,35.269
		c-52.021,34.324-112.365,52.603-175.083,52.603c-41.904,0-82.643-8.008-121.086-23.813l-8.359,20.32
		c41.113,16.893,84.663,25.461,129.445,25.461c68.177,0,133.771-20.134,190.031-58.062c11.204,8.82,25.296,14.126,40.63,14.126
		c36.345,0,65.903-29.559,65.903-65.903C649.065,724.316,619.506,694.759,583.161,694.759z M583.161,804.596
		c-24.231,0-43.937-19.705-43.937-43.935c0-24.231,19.705-43.937,43.937-43.937c24.229,0,43.935,19.705,43.935,43.937
		C627.096,784.891,607.391,804.596,583.161,804.596z"/>
	<rect x="572.177" y="749.677" fill="#FFFFFF" width="21.968" height="21.968"/>
	<path fill="#FFFFFF" d="M634.939,339.969c8.82-11.204,14.126-25.296,14.126-40.63c0-36.346-29.559-65.903-65.903-65.903
		c-36.346,0-65.903,29.557-65.903,65.903c0,36.346,29.558,65.903,65.903,65.903c12.982,0,25.054-3.822,35.269-10.325
		c34.336,52.03,52.603,112.365,52.603,175.083c0,41.926-8.008,82.665-23.813,121.076l20.32,8.37
		C684.432,618.365,693,574.803,693,530C693,461.823,672.866,396.228,634.939,339.969z M583.161,343.274
		c-24.231,0-43.937-19.705-43.937-43.935s19.705-43.935,43.937-43.935c24.229,0,43.935,19.705,43.935,43.935
		S607.391,343.274,583.161,343.274z"/>
	<path fill="#FFFFFF" d="M628.569,689.013l19.024,10.984c3.822-6.635,7.458-13.455,10.797-20.266l-19.728-9.676
		C635.543,676.427,632.138,682.807,628.569,689.013z"/>
	<rect x="572.177" y="288.355" fill="#FFFFFF" width="21.968" height="21.968"/>
</g>
<g>
	<polygon fill="#FFFFFF" points="198.726,486.065 319.548,540.984 319.548,661.806 198.726,606.887 	"/>
	<polygon fill="#FFFFFF" points="231.677,431.146 352.5,376.226 473.323,431.146 352.5,486.065 	"/>
</g>
</svg>
