<?xml version="1.0" encoding="iso-8859-1"?>
<!-- Generator: Adobe Illustrator 19.0.0, SVG Export Plug-In . SVG Version: 6.00 Build 0)  -->
<svg version="1.1" id="Capa_1" xmlns="http://www.w3.org/2000/svg" xmlns:xlink="http://www.w3.org/1999/xlink" x="0px" y="0px"
	 viewBox="0 0 512 512" style="enable-background:new 0 0 512 512;" xml:space="preserve">
<path style="fill:#00AA95;" d="M169.895,264.983v24.486c0,34.988,26.81,63.693,61,66.735v62.935c0,13.385-2.124,26.72-6.712,39.277
	c-1.596,4.369-2.294,9.156-1.885,14.163c1.327,16.138,14.472,29.104,30.62,30.231c19.369,1.346,35.497-13.953,35.497-33.034
	c0-3.351-0.499-6.583-1.426-9.625c-3.441-11.31-5.546-22.99-5.546-34.809v-69.139c34.191-3.042,61-31.747,61-66.735v-24.486
	L169.895,264.983L169.895,264.983z M255.302,482.623c-7.091,0-12.846-5.755-12.846-12.846c0-7.091,5.755-12.836,12.846-12.836
	c7.091,0,12.836,5.745,12.836,12.836C268.138,476.868,262.393,482.623,255.302,482.623z"/>
<path style="fill:#00A870;" d="M281.443,425.343v-69.139c3.769-0.335,7.443-0.999,11.006-1.933
	c-28.763-7.531-49.994-33.671-49.994-64.802v-24.486h-72.56v24.486c0,34.988,26.81,63.693,61,66.735v62.935
	c0,13.385-2.124,26.72-6.712,39.277c-1.596,4.369-2.294,9.156-1.885,14.163c1.327,16.138,14.472,29.104,30.62,30.231
	c19.369,1.346,35.497-13.953,35.497-33.034c0-3.351-0.499-6.583-1.426-9.625C283.548,448.842,281.443,437.162,281.443,425.343z
	 M255.302,482.623c-7.091,0-12.846-5.755-12.846-12.846c0-7.091,5.755-12.836,12.846-12.836c7.091,0,12.836,5.745,12.836,12.836
	C268.138,476.868,262.393,482.623,255.302,482.623z"/>
<path style="fill:#FF7400;" d="M504.52,9.103v42.039c0,7.63-6.185,13.815-13.815,13.815h-4.286c-7.63,0-13.815,6.185-13.815,13.815
	v51.634c0,7.393-5.589,13.791-12.964,14.308c-4.243,0.297-8.123-1.315-10.874-4.054c-2.523-2.533-4.089-6.024-4.089-9.874v-7.151
	c0-5.562-4.199-10.403-9.748-10.777c-3.179-0.214-6.073,0.995-8.125,3.047c-1.895,1.895-3.072,4.508-3.072,7.401v63.459
	c0,6.85-5.599,12.831-12.449,12.841c-3.448,0.005-6.577-1.392-8.835-3.65c-2.254-2.254-3.65-5.376-3.65-8.817V117.1
	c0-15.027-12.182-27.209-27.209-27.209h-13.405c-15.027,0-27.209,12.182-27.209,27.209v67.463v38.978H179.372l0.309-39.576
	l-0.489-83.671c-0.03-6.014-4.947-10.872-10.961-10.842l-27.069,0.16c-6.014,0.04-10.872,4.947-10.842,10.971l0.289,49.54
	c0.05,7.52-5.695,14.023-13.205,14.422c-8.009,0.419-14.672-5.934-14.711-13.864l0.828-27.937
	c-0.04-7.929-6.702-14.283-14.711-13.864c-7.51,0.399-13.255,6.902-13.205,14.422l0.299,52.463
	c0.05,7.939-6.533,14.362-14.552,14.033c-7.51-0.309-13.335-6.742-13.375-14.263l-0.489-83.242
	c-0.06-11.091-9.106-20.038-20.197-19.968l-9.055,0.05C12.304,72.41,7.48,67.613,7.48,61.683V9.103H504.52z"/>
<path style="fill:#E04E05;" d="M275.619,118.317L275.619,118.317c-8.814,0-15.958-7.144-15.958-15.958V48.72
	c0-5.63,4.564-10.194,10.194-10.194h11.528c5.63,0,10.194,4.564,10.194,10.194v53.639
	C291.577,111.172,284.432,118.317,275.619,118.317z"/>
<path style="fill:#DDDBC7;" d="M342.444,191.276v73.707H169.895v-66.695c0-6.478,5.251-11.729,11.729-11.729h8.641
	c1.345,0,2.599,0.686,3.324,1.819l4.289,6.703c1.709,2.67,5.709,2.338,6.954-0.577l2.369-5.549c0.62-1.453,2.049-2.397,3.63-2.397
	h25.789c1.679,0,3.174,1.062,3.726,2.647l7.484,21.463c1.198,3.435,6.01,3.558,7.382,0.188l8.884-21.838
	c0.604-1.487,2.05-2.46,3.655-2.46h24.404h7.049c1.514,0,2.894,0.867,3.554,2.23l6.432,13.319c1.33,2.753,5.15,3.013,6.841,0.466
	l9.462-14.252c0.731-1.101,1.966-1.763,3.287-1.763h8.945C340.331,186.558,342.444,188.671,342.444,191.276z"/>
<path style="fill:#C6C3AB;" d="M241.921,193.721l-1.575-4.517c-0.553-1.585-2.048-2.647-3.726-2.647h-25.79
	c-1.581,0-3.009,0.944-3.63,2.397l-2.369,5.549c-1.245,2.915-5.245,3.247-6.954,0.577l-4.289-6.704
	c-0.725-1.134-1.979-1.819-3.324-1.819h-8.64c-6.478,0-11.729,5.251-11.729,11.729v66.695h71.104v-66.695
	C240.999,196.668,241.327,195.125,241.921,193.721z"/>
<g>
	<path style="fill:#E04E05;" d="M76.639,250.471v13.963c0,8.258-6.702,14.961-14.961,14.961s-14.961-6.702-14.961-14.961v-13.963
		c0-8.258,6.702-14.961,14.961-14.961c4.129,0,7.869,1.676,10.572,4.389C74.964,242.602,76.639,246.342,76.639,250.471z"/>
	<path style="fill:#E04E05;" d="M472.603,258.45v49.87c0,7.161-5.805,12.966-12.966,12.966s-12.966-5.805-12.966-12.966v-49.87
		c0-7.161,5.805-12.966,12.966-12.966c3.581,0,6.822,1.456,9.166,3.8C471.147,251.628,472.603,254.869,472.603,258.45z"/>
</g>
<path d="M234.975,469.777c0,11.208,9.119,20.327,20.327,20.327c11.203,0,20.317-9.119,20.317-20.327
	c0-11.203-9.114-20.317-20.317-20.317C244.093,449.46,234.975,458.573,234.975,469.777z M255.302,464.421
	c2.953,0,5.356,2.403,5.356,5.356c0,2.959-2.403,5.366-5.356,5.366c-2.958,0-5.366-2.407-5.366-5.366
	C249.936,466.824,252.343,464.421,255.302,464.421z"/>
<path d="M200.396,214.804c-4.131,0-7.48,3.348-7.48,7.48v15.686c0,4.132,3.349,7.48,7.48,7.48c4.131,0,7.48-3.348,7.48-7.48v-15.686
	C207.876,218.154,204.528,214.804,200.396,214.804z"/>
<path d="M310.2,222.647c-4.131,0-7.48,3.348-7.48,7.48v11.328c0,4.132,3.349,7.48,7.48,7.48s7.48-3.348,7.48-7.48v-11.328
	C317.681,225.996,314.331,222.647,310.2,222.647z"/>
<path d="M504.52,1.622c-4.131,0-7.48,3.348-7.48,7.48v48.373h-24.436c-4.131,0-7.48,3.348-7.48,7.48v65.828
	c0,3.575-2.908,6.483-6.483,6.483c-1.727,0-3.359-0.678-4.574-1.888c-1.231-1.236-1.909-2.867-1.909-4.595v-7.48
	c0-9.899-8.054-17.953-17.953-17.953c-4.79,0-9.298,1.869-12.691,5.263s-5.262,7.901-5.262,12.69v63.833
	c0,2.75-2.237,4.987-4.987,4.987c-1.334,0-2.586-0.519-3.528-1.46c-0.941-0.941-1.459-2.193-1.459-3.527V117.1
	c0-19.128-15.561-34.689-34.689-34.689h-13.405c-19.128,0-34.689,15.562-34.689,34.689v62.684c-1.225,0.573-2.29,1.476-3.06,2.637
	l-7.203,10.85l-4.814-9.966c-1.249-2.584-3.866-4.226-6.735-4.226h-36.584c-3.043,0-5.782,1.843-6.929,4.662l-6.356,15.625
	l-5.324-15.27c-1.048-3.004-3.882-5.017-7.064-5.017h-31.198c-2.996,0-5.703,1.787-6.879,4.543l-0.768,1.799l-1.85-2.892
	c-1.374-2.148-3.75-3.449-6.301-3.449h-5.294l-0.461-78.821c-0.05-10.102-8.29-18.285-18.395-18.285h-0.091l-27.075,0.16
	c-10.126,0.067-18.322,8.361-18.272,18.496l0.289,49.546c0.024,3.627-2.722,6.722-6.115,6.902c-1.8,0.11-3.508-0.531-4.809-1.761
	c-1.275-1.204-1.994-2.822-2.03-4.564l0.823-27.782c0.003-0.086,0.004-0.173,0.003-0.259c-0.029-5.827-2.479-11.466-6.72-15.472
	c-4.305-4.066-9.93-6.142-15.868-5.825c-11.454,0.608-20.366,10.246-20.289,21.935l0.299,52.467c0.011,1.788-0.69,3.457-1.977,4.7
	c-1.287,1.243-2.981,1.9-4.786,1.811c-3.401-0.14-6.183-3.203-6.202-6.832l-0.489-83.238c-0.04-7.364-2.946-14.271-8.183-19.448
	c-5.196-5.138-12.066-7.96-19.36-7.96h-0.177l-12.287,0.067V9.103c0-4.132-3.349-7.48-7.48-7.48S0,4.97,0,9.103v63.334
	c0,1.991,0.794,3.9,2.205,5.304c1.412,1.403,3.363,2.219,5.316,2.176l19.813-0.11h0.081c3.334,0,6.474,1.29,8.849,3.637
	c2.394,2.367,3.722,5.525,3.74,8.894l0.489,83.238c0.063,11.695,9.088,21.225,20.549,21.697c0.305,0.012,0.609,0.019,0.913,0.019
	c5.589,0,10.845-2.118,14.882-6.018c4.196-4.052,6.581-9.723,6.545-15.551l-0.299-52.469c-0.024-3.626,2.722-6.721,6.116-6.902
	c1.796-0.105,3.507,0.531,4.809,1.761c1.275,1.205,1.994,2.822,2.03,4.564l-0.823,27.783c-0.002,0.086-0.004,0.173-0.003,0.259
	c0.029,5.827,2.479,11.466,6.72,15.471c4.306,4.066,9.938,6.137,15.868,5.825c11.455-0.607,20.367-10.245,20.289-21.936
	l-0.289-49.533c-0.009-1.891,1.521-3.441,3.406-3.454l27.061-0.16h0.017c1.882,0,3.418,1.521,3.427,3.405l0.475,81.223
	c-5.829,3.302-9.77,9.562-9.77,16.726v91.181c0,1.061,0.023,2.12,0.067,3.177c0.002,0.044,0.003,0.087,0.006,0.131
	c0.771,17.525,7.655,34.143,19.581,47.106c11.028,11.987,25.516,19.951,41.347,22.848v56.41c0,12.992-2.105,25.344-6.258,36.711
	c-2.024,5.539-2.803,11.371-2.314,17.343c1.624,19.759,17.769,35.7,37.557,37.081c0.982,0.068,1.96,0.102,2.933,0.102
	c10.323,0,20.052-3.817,27.657-10.91c8.202-7.652,12.905-18.473,12.905-29.687c0-4.022-0.589-7.996-1.75-11.801
	c-3.465-11.391-5.221-22.37-5.221-32.633c0-4.132-3.349-7.48-7.48-7.48s-7.48,3.348-7.48,7.48c0,11.739,1.975,24.183,5.871,36.991
	c0.73,2.396,1.101,4.9,1.101,7.443c0,7.186-2.894,13.844-8.151,18.747c-5.256,4.902-12.128,7.314-19.345,6.825
	c-12.478-0.871-22.662-10.922-23.685-23.377c-0.31-3.798,0.18-7.494,1.455-10.988c4.756-13.016,7.167-27.094,7.167-41.844v-55.17
	h6.464c4.131,0,7.48-3.348,7.48-7.48s-3.349-7.48-7.48-7.48h-11.895c-0.446-0.127-0.91-0.213-1.387-0.256
	c-27.369-2.435-48.775-22.721-53.299-48.911h155.818c-4.523,26.19-25.929,46.476-53.298,48.911
	c-3.859,0.344-6.817,3.577-6.817,7.452v34.104c0,4.132,3.349,7.48,7.48,7.48s7.48-3.348,7.48-7.48v-27.578
	c15.831-2.897,30.319-10.863,41.347-22.848c11.927-12.964,18.811-29.582,19.581-47.106c0.002-0.043,0.004-0.087,0.006-0.131
	c0.045-1.056,0.067-2.114,0.067-3.177V191.27c0-6.476-5.082-11.788-11.47-12.165v-62c0-10.879,8.85-19.728,19.728-19.728h13.405
	c10.879,0,19.728,8.85,19.728,19.728v70.037c0,5.331,2.075,10.34,5.842,14.107s8.777,5.841,14.106,5.841
	c10.999,0,19.948-8.949,19.948-19.948v-63.833c0-1.07,0.553-1.782,0.882-2.111c0.329-0.329,1.039-0.881,2.11-0.881
	c1.65,0,2.992,1.342,2.992,2.992v7.48c0,5.714,2.226,11.095,6.292,15.175c4.059,4.042,9.44,6.269,15.152,6.269
	c11.824,0,21.444-9.62,21.444-21.444V72.442h24.436c4.131,0,7.48-3.348,7.48-7.48V9.108C512,4.97,508.651,1.622,504.52,1.622z
	 M334.963,284.881H177.376v-12.418h157.588V284.881z M334.963,257.503H177.376v-59.215c0-2.343,1.906-4.249,4.249-4.249h6.707
	l7.269,11.362c1.495,2.335,4.16,3.643,6.92,3.424c2.763-0.229,5.172-1.969,6.261-4.517l4.385-10.268h20.945l10.099,28.964
	c1.024,2.938,3.762,4.935,6.873,5.014c3.121,0.072,5.946-1.775,7.119-4.659l11.928-29.319h26.858l8.481,17.557
	c1.169,2.42,3.546,4.026,6.228,4.209c2.689,0.188,5.254-1.087,6.74-3.325l12.243-18.44h4.286v63.462H334.963z"/>
<path d="M275.12,126.296c12.924,0,23.439-10.514,23.439-23.439V78.92c0-4.132-3.349-7.48-7.48-7.48s-7.48,3.348-7.48,7.48v23.937
	c0,4.675-3.803,8.478-8.478,8.478c-4.675,0-8.478-3.803-8.478-8.478V39.024c0-4.132-3.349-7.48-7.48-7.48
	c-4.131,0-7.48,3.348-7.48,7.48v63.833C251.681,115.781,262.196,126.296,275.12,126.296z"/>
<path d="M61.679,228.03c-12.375,0-22.441,10.068-22.441,22.441v13.963c0,12.374,10.067,22.441,22.441,22.441
	s22.441-10.068,22.441-22.441v-13.963c0-6.001-2.34-11.638-6.569-15.852C73.318,230.371,67.681,228.03,61.679,228.03z
	 M69.159,264.434c0,4.125-3.355,7.48-7.48,7.48s-7.48-3.355-7.48-7.48v-13.963c0-4.125,3.355-7.48,7.48-7.48
	c1.995,0,3.867,0.777,5.292,2.207c1.411,1.406,2.188,3.278,2.188,5.273V264.434z"/>
<path d="M459.637,238.004c-11.274,0-20.446,9.172-20.446,20.446v49.87c0,11.274,9.172,20.446,20.446,20.446
	s20.447-9.172,20.447-20.446v-49.87c0-5.458-2.127-10.591-5.991-14.456C470.228,240.131,465.095,238.004,459.637,238.004z
	 M465.123,308.32c0,3.025-2.461,5.486-5.486,5.486c-3.025,0-5.486-2.461-5.486-5.486v-49.87c0-3.025,2.461-5.486,5.486-5.486
	c1.462,0,2.84,0.572,3.876,1.608c1.038,1.038,1.61,2.416,1.61,3.878V308.32z"/>
<path d="M214.279,91.387c4.131,0,7.48-3.348,7.48-7.48V54.983c0-4.132-3.349-7.48-7.48-7.48c-4.131,0-7.48,3.348-7.48,7.48v28.924
	C206.799,88.039,210.148,91.387,214.279,91.387z"/>
<g>
</g>
<g>
</g>
<g>
</g>
<g>
</g>
<g>
</g>
<g>
</g>
<g>
</g>
<g>
</g>
<g>
</g>
<g>
</g>
<g>
</g>
<g>
</g>
<g>
</g>
<g>
</g>
<g>
</g>
</svg>
