<?xml version="1.0" encoding="iso-8859-1"?>
<!-- Generator: Adobe Illustrator 19.0.0, SVG Export Plug-In . SVG Version: 6.00 Build 0)  -->
<svg xmlns="http://www.w3.org/2000/svg" xmlns:xlink="http://www.w3.org/1999/xlink" version="1.1" id="Capa_1" x="0px" y="0px" viewBox="0 0 512 512" style="enable-background:new 0 0 512 512;" xml:space="preserve" width="512px" height="512px">
<g>
	<g>
		<path d="M255.302,449.46c-11.209,0-20.327,9.113-20.327,20.317c0,11.208,9.119,20.327,20.327,20.327    c11.203,0,20.317-9.119,20.317-20.327C275.619,458.574,266.505,449.46,255.302,449.46z M255.302,475.143    c-2.958,0-5.366-2.407-5.366-5.366c0-2.953,2.407-5.356,5.366-5.356c2.953,0,5.356,2.403,5.356,5.356    C260.658,472.736,258.255,475.143,255.302,475.143z" fill="#FFFFFF"/>
	</g>
</g>
<g>
	<g>
		<path d="M200.396,214.804c-4.131,0-7.48,3.348-7.48,7.48v15.686c0,4.131,3.349,7.48,7.48,7.48c4.131,0,7.48-3.348,7.48-7.48    v-15.686C207.876,218.153,204.527,214.804,200.396,214.804z" fill="#FFFFFF"/>
	</g>
</g>
<g>
	<g>
		<path d="M310.2,222.648c-4.131,0-7.48,3.348-7.48,7.48v11.328c0,4.131,3.349,7.48,7.48,7.48s7.48-3.348,7.48-7.48v-11.328    C317.681,225.996,314.331,222.648,310.2,222.648z" fill="#FFFFFF"/>
	</g>
</g>
<g>
	<g>
		<path d="M504.52,1.622c-4.131,0-7.48,3.348-7.48,7.48v48.373h-24.436c-4.131,0-7.48,3.348-7.48,7.48v65.828    c0,3.575-2.908,6.483-6.483,6.483c-1.727,0-3.359-0.678-4.574-1.888c-1.231-1.236-1.909-2.867-1.909-4.595v-7.48    c0-9.899-8.054-17.953-17.953-17.953c-4.79,0-9.298,1.869-12.691,5.263s-5.262,7.901-5.262,12.69v63.833    c0,2.75-2.237,4.987-4.987,4.987c-1.333,0-2.586-0.519-3.528-1.46c-0.941-0.941-1.459-2.193-1.459-3.527V117.1    c0-19.128-15.561-34.689-34.689-34.689h-13.405c-19.128,0-34.689,15.562-34.689,34.689v62.684c-1.225,0.573-2.29,1.476-3.06,2.637    l-7.203,10.85l-4.814-9.966c-1.249-2.584-3.866-4.226-6.735-4.226h-36.584c-3.043,0-5.782,1.843-6.929,4.662l-6.356,15.625    l-5.324-15.27c-1.048-3.004-3.882-5.017-7.064-5.017h-31.198c-2.996,0-5.703,1.787-6.879,4.543l-0.768,1.799l-1.85-2.892    c-1.374-2.148-3.75-3.449-6.302-3.449h-5.294l-0.461-78.821c-0.05-10.102-8.29-18.285-18.395-18.285h-0.091l-27.075,0.16    c-10.126,0.067-18.322,8.361-18.272,18.496l0.289,49.546c0.024,3.627-2.722,6.722-6.115,6.902c-1.8,0.11-3.508-0.531-4.809-1.761    c-1.275-1.204-1.994-2.822-2.03-4.564l0.823-27.782C111,122.884,111,122.797,111,122.71c-0.029-5.827-2.479-11.466-6.72-15.471    c-4.305-4.066-9.93-6.142-15.868-5.825c-11.454,0.608-20.366,10.246-20.289,21.935l0.299,52.467c0.011,1.788-0.69,3.457-1.977,4.7    c-1.287,1.243-2.981,1.9-4.786,1.811c-3.401-0.14-6.183-3.203-6.202-6.832l-0.489-83.238c-0.04-7.364-2.946-14.271-8.183-19.448    c-5.196-5.138-12.066-7.96-19.36-7.96h-0.177l-12.287,0.067V9.103c0-4.132-3.349-7.48-7.48-7.48C3.349,1.622,0,4.97,0,9.103    v63.334c0,1.991,0.794,3.9,2.205,5.304c1.412,1.403,3.363,2.219,5.316,2.176l19.813-0.11h0.081c3.334,0,6.474,1.29,8.849,3.637    c2.394,2.367,3.722,5.525,3.74,8.894l0.489,83.238c0.063,11.695,9.088,21.225,20.549,21.697c0.305,0.012,0.609,0.019,0.913,0.019    c5.589,0,10.845-2.118,14.882-6.018c4.196-4.052,6.581-9.723,6.545-15.551l-0.299-52.469c-0.024-3.625,2.722-6.721,6.116-6.902    c1.796-0.105,3.507,0.531,4.809,1.761c1.275,1.205,1.994,2.822,2.03,4.564l-0.823,27.783c-0.002,0.086-0.004,0.173-0.003,0.259    c0.029,5.827,2.479,11.466,6.72,15.471c4.306,4.066,9.938,6.137,15.868,5.825c11.455-0.607,20.367-10.245,20.289-21.936    l-0.289-49.533c-0.009-1.891,1.521-3.441,3.406-3.454l27.061-0.16h0.017c1.882,0,3.418,1.521,3.427,3.405l0.475,81.223    c-5.829,3.302-9.77,9.562-9.77,16.726v91.181c0,1.061,0.023,2.12,0.067,3.177c0.002,0.044,0.003,0.087,0.006,0.131    c0.771,17.525,7.655,34.143,19.581,47.106c11.028,11.987,25.516,19.951,41.347,22.848v56.41c0,12.992-2.105,25.344-6.258,36.711    c-2.024,5.539-2.803,11.371-2.314,17.343c1.624,19.759,17.768,35.7,37.557,37.081c0.982,0.068,1.96,0.102,2.933,0.102    c10.323,0,20.052-3.817,27.657-10.91c8.202-7.652,12.905-18.473,12.905-29.687c0-4.022-0.589-7.996-1.75-11.801    c-3.465-11.391-5.221-22.37-5.221-32.633c0-4.132-3.349-7.48-7.48-7.48s-7.48,3.348-7.48,7.48c0,11.739,1.975,24.183,5.871,36.991    c0.73,2.396,1.101,4.9,1.101,7.443c0,7.186-2.894,13.844-8.151,18.747c-5.256,4.902-12.128,7.314-19.345,6.825    c-12.478-0.871-22.662-10.922-23.685-23.377c-0.31-3.798,0.18-7.494,1.455-10.988c4.756-13.016,7.167-27.094,7.167-41.844v-55.17    h6.464c4.131,0,7.48-3.348,7.48-7.48s-3.349-7.48-7.48-7.48h-11.895c-0.446-0.127-0.91-0.213-1.387-0.256    c-27.369-2.435-48.775-22.721-53.299-48.911h155.818c-4.523,26.19-25.929,46.476-53.299,48.911    c-3.859,0.344-6.817,3.577-6.817,7.452v34.104c0,4.132,3.349,7.48,7.48,7.48s7.48-3.348,7.48-7.48v-27.578    c15.831-2.897,30.319-10.863,41.347-22.848c11.927-12.964,18.811-29.582,19.581-47.106c0.002-0.043,0.004-0.087,0.006-0.131    c0.045-1.056,0.067-2.114,0.067-3.177V191.27c0-6.476-5.082-11.788-11.47-12.165v-62c0-10.878,8.85-19.728,19.728-19.728h13.405    c10.879,0,19.728,8.85,19.728,19.728v70.037c0,5.331,2.075,10.34,5.842,14.107s8.777,5.841,14.106,5.841    c10.999,0,19.948-8.949,19.948-19.948v-63.833c0-1.07,0.553-1.782,0.882-2.111c0.329-0.329,1.039-0.881,2.11-0.881    c1.65,0,2.992,1.343,2.992,2.992v7.48c0,5.714,2.226,11.095,6.292,15.175c4.059,4.042,9.44,6.269,15.152,6.269    c11.824,0,21.444-9.62,21.444-21.444V72.442h24.436c4.131,0,7.48-3.348,7.48-7.48V9.108C512,4.97,508.651,1.622,504.52,1.622z     M334.963,284.881H177.376v-12.418h157.588V284.881z M334.964,257.504H177.377v-59.215c0-2.343,1.906-4.249,4.249-4.249h6.707    l7.267,11.36c1.495,2.335,4.16,3.643,6.92,3.424c2.763-0.229,5.172-1.969,6.261-4.517l4.385-10.268h20.945l10.099,28.964    c1.024,2.938,3.762,4.935,6.873,5.014c3.121,0.072,5.946-1.775,7.119-4.659l11.928-29.319h26.858l8.481,17.557    c1.169,2.42,3.546,4.026,6.228,4.209c2.689,0.188,5.254-1.087,6.74-3.325l12.243-18.44h4.286V257.504z" fill="#FFFFFF"/>
	</g>
</g>
<g>
	<g>
		<path d="M291.078,71.44c-4.131,0-7.48,3.348-7.48,7.48v23.937c0,4.675-3.803,8.478-8.478,8.478c-4.675,0-8.478-3.803-8.478-8.478    V39.024c0-4.132-3.349-7.48-7.48-7.48c-4.131,0-7.48,3.348-7.48,7.48v63.833c0,12.924,10.514,23.439,23.439,23.439    s23.439-10.514,23.439-23.439V78.92C298.559,74.788,295.209,71.44,291.078,71.44z" fill="#FFFFFF"/>
	</g>
</g>
<g>
	<g>
		<path d="M77.551,234.619c-4.233-4.249-9.87-6.59-15.872-6.59c-12.375,0-22.441,10.068-22.441,22.441v13.963    c0,12.374,10.067,22.441,22.441,22.441c12.375,0,22.441-10.068,22.441-22.441v-13.963C84.12,244.47,81.78,238.833,77.551,234.619z     M69.159,264.434c0,4.125-3.355,7.48-7.48,7.48c-4.125,0-7.48-3.355-7.48-7.48v-13.963c0-4.125,3.355-7.48,7.48-7.48    c1.995,0,3.867,0.777,5.292,2.207c1.411,1.406,2.188,3.278,2.188,5.273V264.434z" fill="#FFFFFF"/>
	</g>
</g>
<g>
	<g>
		<path d="M474.092,243.994c-3.864-3.863-8.997-5.99-14.455-5.99c-11.274,0-20.446,9.172-20.446,20.446v49.87    c0,11.274,9.172,20.446,20.446,20.446s20.446-9.172,20.446-20.446v-49.87C480.083,252.992,477.956,247.859,474.092,243.994z     M465.123,308.32c0,3.025-2.461,5.486-5.486,5.486s-5.486-2.461-5.486-5.486v-49.87c0-3.025,2.461-5.486,5.486-5.486    c1.462,0,2.84,0.571,3.876,1.608c1.038,1.038,1.61,2.416,1.61,3.878V308.32z" fill="#FFFFFF"/>
	</g>
</g>
<g>
	<g>
		<path d="M214.279,47.502c-4.131,0-7.48,3.348-7.48,7.48v28.924c0,4.132,3.349,7.48,7.48,7.48s7.48-3.348,7.48-7.48V54.983    C221.76,50.85,218.41,47.502,214.279,47.502z" fill="#FFFFFF"/>
	</g>
</g>
<g>
</g>
<g>
</g>
<g>
</g>
<g>
</g>
<g>
</g>
<g>
</g>
<g>
</g>
<g>
</g>
<g>
</g>
<g>
</g>
<g>
</g>
<g>
</g>
<g>
</g>
<g>
</g>
<g>
</g>
</svg>
