<?xml version="1.0" encoding="iso-8859-1"?>
<!-- Generator: Adobe Illustrator 19.0.0, SVG Export Plug-In . SVG Version: 6.00 Build 0)  -->
<svg version="1.1" id="Layer_1" xmlns="http://www.w3.org/2000/svg" xmlns:xlink="http://www.w3.org/1999/xlink" x="0px" y="0px"
	 viewBox="0 0 512 512" style="enable-background:new 0 0 512 512;" xml:space="preserve">
<path style="fill:#CF442B;" d="M436.109,92.994H145.37c-37.781,0-68.409,30.628-68.409,68.409v179.574h427.557V161.403
	C504.518,123.622,473.89,92.994,436.109,92.994z"/>
<path style="fill:#B83C26;" d="M179.574,92.994H145.37c-37.781,0-68.409,30.628-68.409,68.409v179.574h34.205V161.403
	C111.165,123.622,141.793,92.994,179.574,92.994z"/>
<rect x="8.551" y="169.954" style="fill:#FFFFFF;" width="256.534" height="171.023"/>
<polygon style="fill:#EBEBEC;" points="136.818,298.221 8.551,195.608 8.551,169.954 265.086,169.954 265.086,195.608 "/>
<polygon style="fill:#FFFFFF;" points="136.818,272.568 8.551,169.954 265.086,169.954 "/>
<path style="fill:#F58F6C;" d="M436.109,92.994H179.574c37.781,0,68.409,30.628,68.409,68.409v179.574h256.534V161.403
	C504.518,123.622,473.89,92.994,436.109,92.994z"/>
<rect x="213.511" y="340.977" style="fill:#88898E;" width="100.519" height="162.472"/>
<rect x="307.841" y="340.977" style="fill:#C3C4C6;" width="43.351" height="162.472"/>
<polygon style="fill:#F07B52;" points="42.756,452.142 213.779,452.142 247.983,340.977 76.96,340.977 "/>
<circle style="fill:#FDD042;" cx="367.699" cy="178.505" r="34.205"/>
<circle style="fill:#E1A527;" cx="367.699" cy="178.505" r="17.102"/>
<rect x="367.699" y="7.482" style="fill:#FDD042;" width="68.409" height="34.205"/>
<path d="M503.983,195.073c4.428,0,8.017-3.588,8.017-8.017v-25.653c0-42.141-33.75-75.891-75.891-75.891h-60.927V50.238h60.927
	c4.428,0,7.482-4.123,7.482-8.551V7.482c0-4.428-3.054-7.482-7.482-7.482h-68.409c-4.428,0-8.551,3.054-8.551,7.482v78.029H145.37
	c-42.141,0-76.96,33.75-76.96,75.891v1.069H8.551c-4.354,0-8.551,3.128-8.551,7.482v171.023c0,4.428,4.124,8.551,8.551,8.551h57.555
	l-31.013,100.79c-1.56,5.073,2.359,10.375,7.663,10.375h162.472v42.756c0,4.428,4.124,8.551,8.551,8.551h136.818
	c4.428,0,7.482-4.123,7.482-8.551V349.528h146.438c4.428,0,7.482-4.123,7.482-8.551V221.261c0-4.428-3.588-8.017-8.017-8.017
	s-8.017,3.588-8.017,8.017v112.234H255.466V161.403c0-24.54-11.105-45.962-29.138-59.858h132.821v35.512
	c-19.24,3.757-33.937,20.909-33.937,41.448c0,23.281,19.074,42.221,42.355,42.221c23.281,0,42.021-18.941,42.021-42.221
	c0-20.54-14.097-37.691-34.406-41.448v-35.512h60.927c33.3,0,59.858,26.558,59.858,59.858v25.653
	C495.967,191.485,499.555,195.073,503.983,195.073z M427.557,34.205h-52.376V16.033h52.376V34.205z M239.432,178.505v1.608
	c0,0.27-0.909,0.61-1.444,1.04l-101.303,81.417l-105.28-84.064H239.432z M16.033,186.633l115.51,92.194
	c2.894,2.315,6.988,2.315,9.882,0l98.007-78.511v133.179H76.96H16.033V186.633z M82.881,349.528h154.248l-29.271,95.132H53.61
	L82.881,349.528z M342.046,349.528v146.438h-26.722v-70.191c0-4.428-3.588-8.017-8.017-8.017c-4.428,0-8.017,3.588-8.017,8.017
	v69.683c0-0.012,0.181,0.508,0,0.508h-78.029v-40.084c0-0.63,0.187-0.973,0.05-1.561l32.594-104.794h45.385v43.469
	c0,4.428,3.588,8.017,8.017,8.017c4.428,0,8.017-3.588,8.017-8.017v-43.469H342.046z M239.432,161.403v1.069H84.443v-1.069
	c0-33.3,27.627-59.858,60.927-59.858h34.205C212.874,101.545,239.432,128.103,239.432,161.403z M393.62,178.505
	c0,14.441-11.614,26.188-26.054,26.188s-26.389-11.747-26.389-26.188c0-11.645,8.351-21.534,17.971-24.928v24.928
	c0,4.428,3.588,8.017,8.017,8.017c4.428,0,8.017-3.588,8.017-8.017v-24.928C385.871,156.971,393.62,166.861,393.62,178.505z"/>
<path d="M316.392,299.29c-4.428,0-8.017,3.588-8.017,8.017c0,4.428,3.588,8.017,8.017,8.017h111.165
	c4.428,0,8.017-3.588,8.017-8.017c0-4.428-3.588-8.017-8.017-8.017H316.392z"/>
<path d="M453.211,299.29c-4.428,0-8.017,3.588-8.017,8.017c0,4.428,3.588,8.017,8.017,8.017h17.102c4.428,0,8.017-3.588,8.017-8.017
	c0-4.428-3.588-8.017-8.017-8.017H453.211z"/>
<g>
</g>
<g>
</g>
<g>
</g>
<g>
</g>
<g>
</g>
<g>
</g>
<g>
</g>
<g>
</g>
<g>
</g>
<g>
</g>
<g>
</g>
<g>
</g>
<g>
</g>
<g>
</g>
<g>
</g>
</svg>
