<?xml version="1.0" encoding="utf-8"?>
<!-- Generator: Adobe Illustrator 16.0.0, SVG Export Plug-In . SVG Version: 6.00 Build 0)  -->
<!DOCTYPE svg PUBLIC "-//W3C//DTD SVG 1.1//EN" "http://www.w3.org/Graphics/SVG/1.1/DTD/svg11.dtd">
<svg version="1.1" id="Capa_1" xmlns="http://www.w3.org/2000/svg" xmlns:xlink="http://www.w3.org/1999/xlink" x="0px" y="0px"
	 width="705px" height="758px" viewBox="0 0 705 758" enable-background="new 0 0 705 758" xml:space="preserve">
<path fill="#8C8C8C" d="M652.059,707.585H87.948c-23.432,0-42.428-18.996-42.428-42.428V327.069h648.967v338.089
	C694.487,688.588,675.491,707.585,652.059,707.585z"/>
<path opacity="0.1" fill="#383838" enable-background="new    " d="M623.031,327.069v266.632c0,23.432-18.997,42.428-42.429,42.428
	H45.518v29.027c0,23.432,18.996,42.428,42.428,42.428h564.11c23.432,0,42.428-18.996,42.428-42.428V327.069H623.031z"/>
<g>
	<g>
		<path fill="#FE9704" d="M694.487,367.769H45.518v-94.68h634.948c7.743,0,14.021,6.277,14.021,14.021V367.769z"/>
		<path fill="#FE9704" d="M675.636,125.692L45.405,202.944l-10.576-86.295c-0.942-7.686,4.523-14.68,12.21-15.62L663.354,25.48
			c7.686-0.94,14.68,4.524,15.621,12.211l8.872,72.378C688.787,117.756,683.323,124.75,675.636,125.692z"/>
		<circle fill="#FE9704" cx="45.518" cy="237.94" r="35"/>
	</g>
</g>
<g>
	<g>
		<polygon opacity="0.6" fill="#FF4432" enable-background="new    " points="257.959,367.388 338.448,273.09 191.853,273.09 
			111.362,367.388 		"/>
		<polygon opacity="0.6" fill="#FF4432" enable-background="new    " points="404.555,367.388 485.045,273.09 631.643,273.09 
			550.826,367.769 		"/>
		<polygon opacity="0.6" fill="#FF4432" enable-background="new    " points="126.868,192.958 200.258,82.245 345.861,64.398 
			272.474,175.109 		"/>
		<polygon opacity="0.6" fill="#FF4432" enable-background="new    " points="418.076,157.262 491.463,46.551 637.067,28.702 
			563.68,139.416 		"/>
	</g>
</g>
<g>
	<g>
		<polygon opacity="0.6" fill="#FF4432" enable-background="new    " points="257.959,367.388 338.448,273.09 191.853,273.09 
			111.362,367.388 		"/>
		<polygon opacity="0.6" fill="#FF4432" enable-background="new    " points="404.555,367.388 485.045,273.09 631.643,273.09 
			550.826,367.769 		"/>
		<polygon opacity="0.6" fill="#FF4432" enable-background="new    " points="126.868,192.958 200.258,82.245 345.861,64.398 
			272.474,175.109 		"/>
		<polygon opacity="0.6" fill="#FF4432" enable-background="new    " points="418.076,157.262 491.463,46.551 637.067,28.702 
			563.68,139.416 		"/>
	</g>
</g>
<g>
	<g>
		<polygon opacity="0.6" fill="#FF4432" enable-background="new    " points="257.959,367.388 338.448,273.09 191.853,273.09 
			111.362,367.388 		"/>
		<polygon opacity="0.6" fill="#FF4432" enable-background="new    " points="404.555,367.388 485.045,273.09 631.643,273.09 
			550.826,367.769 		"/>
		<polygon opacity="0.6" fill="#FF4432" enable-background="new    " points="126.868,192.958 200.258,82.245 345.861,64.398 
			272.474,175.109 		"/>
		<polygon opacity="0.6" fill="#FF4432" enable-background="new    " points="418.076,157.262 491.463,46.551 637.067,28.702 
			563.68,139.416 		"/>
	</g>
</g>
<g>
	<g>
		<polygon opacity="0.6" fill="#FF4432" enable-background="new    " points="257.959,367.388 338.448,273.09 191.853,273.09 
			111.362,367.388 		"/>
		<polygon opacity="0.6" fill="#FF4432" enable-background="new    " points="404.555,367.388 485.045,273.09 631.643,273.09 
			550.826,367.769 		"/>
		<polygon opacity="0.6" fill="#FF4432" enable-background="new    " points="126.868,192.958 200.258,82.245 345.861,64.398 
			272.474,175.109 		"/>
		<polygon opacity="0.6" fill="#FF4432" enable-background="new    " points="418.076,157.262 491.463,46.551 637.067,28.702 
			563.68,139.416 		"/>
	</g>
</g>
<g>
	<g>
		<polygon opacity="0.6" fill="#FF4432" enable-background="new    " points="257.959,367.388 338.448,273.09 191.853,273.09 
			111.362,367.388 		"/>
		<polygon opacity="0.6" fill="#FF4432" enable-background="new    " points="404.555,367.388 485.045,273.09 631.643,273.09 
			550.826,367.769 		"/>
		<polygon opacity="0.6" fill="#FF4432" enable-background="new    " points="126.868,192.958 200.258,82.245 345.861,64.398 
			272.474,175.109 		"/>
		<polygon opacity="0.6" fill="#FF4432" enable-background="new    " points="418.076,157.262 491.463,46.551 637.067,28.702 
			563.68,139.416 		"/>
	</g>
</g>
<g>
	<g>
		<polygon opacity="0.6" fill="#FF4432" enable-background="new    " points="257.959,367.388 338.448,273.09 191.853,273.09 
			111.362,367.388 		"/>
		<polygon opacity="0.6" fill="#FF4432" enable-background="new    " points="404.555,367.388 485.045,273.09 631.643,273.09 
			550.826,367.769 		"/>
		<polygon opacity="0.6" fill="#FF4432" enable-background="new    " points="126.868,192.958 200.258,82.245 345.861,64.398 
			272.474,175.109 		"/>
		<polygon opacity="0.6" fill="#FF4432" enable-background="new    " points="418.076,157.262 491.463,46.551 637.067,28.702 
			563.68,139.416 		"/>
	</g>
</g>
<g>
	<g>
		<polygon opacity="0.6" fill="#FF4432" enable-background="new    " points="257.959,367.388 338.448,273.09 191.853,273.09 
			111.362,367.388 		"/>
		<polygon opacity="0.6" fill="#FF4432" enable-background="new    " points="404.555,367.388 485.045,273.09 631.643,273.09 
			550.826,367.769 		"/>
		<polygon opacity="0.6" fill="#FF4432" enable-background="new    " points="126.868,192.958 200.258,82.245 345.861,64.398 
			272.474,175.109 		"/>
		<polygon opacity="0.6" fill="#FF4432" enable-background="new    " points="418.076,157.262 491.463,46.551 637.067,28.702 
			563.68,139.416 		"/>
	</g>
</g>
<g>
	<g>
		<polygon opacity="0.6" fill="#FF4432" enable-background="new    " points="257.959,367.388 338.448,273.09 191.853,273.09 
			111.362,367.388 		"/>
		<polygon opacity="0.6" fill="#FF4432" enable-background="new    " points="404.555,367.388 485.045,273.09 631.643,273.09 
			550.826,367.769 		"/>
		<polygon opacity="0.6" fill="#FF4432" enable-background="new    " points="126.868,192.958 200.258,82.245 345.861,64.398 
			272.474,175.109 		"/>
		<polygon opacity="0.6" fill="#FF4432" enable-background="new    " points="418.076,157.262 491.463,46.551 637.067,28.702 
			563.68,139.416 		"/>
	</g>
</g>
<g>
	<g>
		<polygon opacity="0.6" fill="#FF4432" enable-background="new    " points="257.959,367.388 338.448,273.09 191.853,273.09 
			111.362,367.388 		"/>
		<polygon opacity="0.6" fill="#FF4432" enable-background="new    " points="404.555,367.388 485.045,273.09 631.643,273.09 
			550.826,367.769 		"/>
		<polygon opacity="0.6" fill="#FF4432" enable-background="new    " points="126.868,192.958 200.258,82.245 345.861,64.398 
			272.474,175.109 		"/>
		<polygon opacity="0.6" fill="#FF4432" enable-background="new    " points="418.076,157.262 491.463,46.551 637.067,28.702 
			563.68,139.416 		"/>
	</g>
</g>
<g>
	<g>
		<polygon opacity="0.6" fill="#FF4432" enable-background="new    " points="257.959,367.388 338.448,273.09 191.853,273.09 
			111.362,367.388 		"/>
		<polygon opacity="0.6" fill="#FF4432" enable-background="new    " points="404.555,367.388 485.045,273.09 631.643,273.09 
			550.826,367.769 		"/>
		<polygon opacity="0.6" fill="#FF4432" enable-background="new    " points="126.868,192.958 200.258,82.245 345.861,64.398 
			272.474,175.109 		"/>
		<polygon opacity="0.6" fill="#FF4432" enable-background="new    " points="418.076,157.262 491.463,46.551 637.067,28.702 
			563.68,139.416 		"/>
	</g>
</g>
<path fill="#191919" d="M680.482,262.575l-109.33-0.147c-0.004,0-0.01,0-0.014,0c-5.8,0-10.508,4.699-10.517,10.501
	c-0.007,5.808,4.694,10.521,10.501,10.529l37.802,0.051l-61.685,72.268H428.293l61.604-72.17h28.688
	c5.808,0,10.517-4.707,10.517-10.517c0-5.809-4.708-10.516-10.517-10.516H83.761c4.594-7.105,7.271-15.562,7.271-24.633
	c0-10.892-3.851-20.898-10.254-28.738l596.137-73.072c6.506-0.796,12.311-4.08,16.347-9.245c4.034-5.163,5.819-11.59,5.021-18.093
	l-8.872-72.378c-0.797-6.508-4.079-12.313-9.243-16.346c-5.162-4.036-11.587-5.825-18.095-5.021L150.563,77.745
	c-5.765,0.707-9.865,5.951-9.158,11.716c0.705,5.764,5.958,9.872,11.717,9.157l25.762-3.157l-58.103,87.647l-66.219,8.117
	l-9.299-75.859c-0.154-1.253,0.383-2.156,0.716-2.584c0.333-0.43,1.081-1.167,2.336-1.319l43.124-5.288
	c5.765-0.706,9.864-5.951,9.158-11.715c-0.705-5.764-5.954-9.856-11.717-9.158L45.756,90.59c-6.507,0.796-12.312,4.08-16.346,9.243
	c-4.036,5.164-5.82,11.591-5.022,18.093l9.323,76.063c-19.389,5.214-33.707,22.939-33.707,43.953
	c0,21.479,14.956,39.516,34.999,44.274v84.071v1.479v87.432c0,5.809,4.708,10.516,10.516,10.516c5.81,0,10.516-4.706,10.516-10.516
	v-76.915h627.939v286.87c0,17.599-14.316,31.915-31.914,31.915H87.948c-17.598,0-31.914-14.316-31.914-31.915V505.513
	c0-5.808-4.706-10.516-10.516-10.516c-5.808,0-10.516,4.706-10.516,10.516v159.641c0,29.191,23.751,52.944,52.942,52.944h564.112
	c29.191,0,52.942-23.751,52.942-52.944V367.769v-1.479V287.11C705.001,273.581,693.995,262.575,680.482,262.575z M636.54,283.545
	l43.926,0.059c1.933,0,3.506,1.571,3.506,3.507v68.664H574.89L636.54,283.545z M315.648,283.606l-61.601,72.17H135.099l61.601-72.17
	H315.648z M107.45,355.774H56.033v-72.171h113.019L107.45,355.774z M400.643,355.774H281.697l61.602-72.171h118.945L400.643,355.774
	z M350.902,74.375L470.09,59.765l-58.102,87.65l-118.141,14.48l55.498-83.727C350.133,76.982,350.646,75.692,350.902,74.375z
	 M439.45,144.05l55.417-83.602c0.813-1.226,1.33-2.557,1.579-3.913l119.245-14.616l-58.099,87.648L439.45,144.05z M664.631,35.919
	c1.254-0.155,2.157,0.382,2.586,0.718c0.428,0.333,1.167,1.081,1.318,2.334l8.872,72.378c0.154,1.254-0.383,2.157-0.718,2.586
	s-1.081,1.167-2.335,1.32l-89.303,10.946l55.335-83.479c0.834-1.257,1.354-2.63,1.594-4.029L664.631,35.919z M203.824,95.896
	c0.767-1.153,1.265-2.403,1.528-3.682L324.485,77.61l-58.1,87.651l-118.141,14.482L203.824,95.896z M21.034,237.942
	c0-13.499,10.983-24.482,24.483-24.482c13.499,0,24.483,10.983,24.483,24.482c0,13.5-10.984,24.484-24.483,24.484
	C32.018,262.427,21.034,251.442,21.034,237.942z"/>
<path fill="#191919" d="M217.624,465.714h314.98c5.807,0,10.516-4.706,10.516-10.516c0-5.811-4.708-10.517-10.516-10.517h-314.98
	c-5.808,0-10.517,4.706-10.517,10.517C207.108,461.008,211.816,465.714,217.624,465.714z"/>
<path fill="#191919" d="M217.624,544.091h314.98c5.807,0,10.516-4.706,10.516-10.516c0-5.811-4.708-10.517-10.516-10.517h-314.98
	c-5.808,0-10.517,4.706-10.517,10.517C207.108,539.385,211.816,544.091,217.624,544.091z"/>
<path fill="#191919" d="M217.624,629.19h314.98c5.807,0,10.516-4.706,10.516-10.517c0-5.81-4.708-10.516-10.516-10.516h-314.98
	c-5.808,0-10.517,4.706-10.517,10.516C207.108,624.484,211.816,629.19,217.624,629.19z"/>
</svg>
