<?xml version="1.0" encoding="iso-8859-1"?>
<!-- Generator: Adobe Illustrator 19.0.0, SVG Export Plug-In . SVG Version: 6.00 Build 0)  -->
<svg xmlns="http://www.w3.org/2000/svg" xmlns:xlink="http://www.w3.org/1999/xlink" version="1.1" id="Capa_1" x="0px" y="0px" viewBox="0 0 512.001 512.001" style="enable-background:new 0 0 512.001 512.001;" xml:space="preserve" width="512px" height="512px">
<g>
	<g>
		<path d="M494.192,180.541l-79.4-0.107c-0.003,0-0.007,0-0.01,0c-4.212,0-7.63,3.413-7.637,7.626    c-0.005,4.217,3.409,7.641,7.626,7.647l27.453,0.037l-44.797,52.483h-86.384l44.738-52.413h20.835    c4.217,0,7.637-3.418,7.637-7.637c0-4.218-3.419-7.637-7.637-7.637H60.828c3.336-5.16,5.281-11.3,5.281-17.888    c0-7.909-2.796-15.177-7.447-20.872l432.94-53.068c4.724-0.578,8.94-2.963,11.871-6.714c2.93-3.75,4.227-8.417,3.647-13.14    l-6.443-52.564c-0.579-4.726-2.963-8.941-6.713-11.871c-3.75-2.931-8.415-4.23-13.141-3.647l-371.48,45.534    c-4.186,0.513-7.164,4.322-6.651,8.508c0.512,4.186,4.327,7.17,8.509,6.651l18.709-2.293L87.713,122.83l-48.091,5.896    l-6.753-55.093c-0.112-0.91,0.278-1.566,0.52-1.877c0.242-0.311,0.785-0.847,1.696-0.958l31.319-3.84    c4.186-0.513,7.164-4.322,6.651-8.508c-0.512-4.186-4.324-7.158-8.509-6.651l-31.319,3.84c-4.725,0.578-8.94,2.963-11.871,6.713    c-2.931,3.75-4.227,8.418-3.647,13.14l6.771,55.24C10.399,134.518,0,147.391,0,162.652c0,15.598,10.862,28.697,25.418,32.154    v61.056v1.075v63.496c0,4.218,3.419,7.637,7.637,7.637s7.637-3.418,7.637-7.637v-55.859h456.036v208.337    c0,12.781-10.397,23.178-23.177,23.178H63.869c-12.78,0-23.177-10.397-23.177-23.178V356.974c0-4.218-3.419-7.637-7.637-7.637    c-4.217,0-7.637,3.418-7.637,7.637v115.937c0,21.201,17.249,38.451,38.45,38.451h409.682c21.201,0,38.45-17.249,38.45-38.451    V256.938v-1.075v-57.504C512,188.534,504.007,180.541,494.192,180.541z M466.231,17.95l16.45-2.016    c0.91-0.113,1.567,0.277,1.878,0.521c0.31,0.242,0.847,0.785,0.958,1.695l6.443,52.564c0.112,0.911-0.278,1.567-0.521,1.878    c-0.243,0.311-0.785,0.848-1.696,0.959l-64.855,7.95l40.186-60.626C465.679,19.963,466.058,18.966,466.231,17.95z M360.537,30.906    l86.601-10.615l-42.194,63.655l-85.8,10.517l40.246-60.715C359.98,32.859,360.357,31.891,360.537,30.906z M254.837,43.862    l86.559-10.61l-42.195,63.656l-85.799,10.517l40.305-60.806C254.279,45.757,254.651,44.819,254.837,43.862z M148.023,59.492    c0.556-0.838,0.918-1.746,1.11-2.674l86.519-10.605l-42.195,63.656l-85.799,10.517L148.023,59.492z M33.054,180.433    c-9.804,0-17.781-7.977-17.781-17.781c0-9.804,7.977-17.781,17.781-17.781s17.781,7.977,17.781,17.781    C50.835,172.456,42.859,180.433,33.054,180.433z M40.691,248.226v-52.413h82.078l-44.737,52.413H40.691z M98.112,248.227    l44.737-52.413h86.384l-44.737,52.413H98.112z M204.577,248.226l44.737-52.413h86.385l-44.737,52.413H204.577z M496.727,248.226    h-79.22l44.775-52.456l31.9,0.043c1.403,0,2.546,1.141,2.546,2.546V248.226z" fill="#FFFFFF"/>
	</g>
</g>
<g>
	<g>
		<path d="M386.797,312.796H158.045c-4.217,0-7.637,3.418-7.637,7.637c0,4.219,3.419,7.637,7.637,7.637h228.753    c4.217,0,7.637-3.418,7.637-7.637C394.434,316.214,391.015,312.796,386.797,312.796z" fill="#FFFFFF"/>
	</g>
</g>
<g>
	<g>
		<path d="M386.797,369.716H158.045c-4.217,0-7.637,3.418-7.637,7.637c0,4.218,3.419,7.637,7.637,7.637h228.753    c4.217,0,7.637-3.418,7.637-7.637C394.434,373.134,391.015,369.716,386.797,369.716z" fill="#FFFFFF"/>
	</g>
</g>
<g>
	<g>
		<path d="M386.797,431.519H158.045c-4.217,0-7.637,3.418-7.637,7.637c0,4.219,3.419,7.637,7.637,7.637h228.753    c4.217,0,7.637-3.418,7.637-7.637C394.434,434.937,391.015,431.519,386.797,431.519z" fill="#FFFFFF"/>
	</g>
</g>
<g>
</g>
<g>
</g>
<g>
</g>
<g>
</g>
<g>
</g>
<g>
</g>
<g>
</g>
<g>
</g>
<g>
</g>
<g>
</g>
<g>
</g>
<g>
</g>
<g>
</g>
<g>
</g>
<g>
</g>
</svg>
