<?xml version="1.0" encoding="utf-8"?>
<!-- Generator: Adobe Illustrator 16.0.0, SVG Export Plug-In . SVG Version: 6.00 Build 0)  -->
<!DOCTYPE svg PUBLIC "-//W3C//DTD SVG 1.1//EN" "http://www.w3.org/Graphics/SVG/1.1/DTD/svg11.dtd">
<svg version="1.1" xmlns="http://www.w3.org/2000/svg" xmlns:xlink="http://www.w3.org/1999/xlink" x="0px" y="0px" width="705px"
	 height="740px" viewBox="0 152.5 705 740" enable-background="new 0 152.5 705 740" xml:space="preserve">
<g id="Camada_2">
</g>
<g id="Capa_1">
	<rect x="103.845" y="497.414" fill="#FFFFFF" width="75.917" height="75.917"/>
	<path fill="#FFFFFF" d="M180.862,585.434h-77.017c-6.602,0-11.003-4.401-11.003-11.003v-75.917c0-6.602,4.401-11.003,11.003-11.003
		h75.917c6.602,0,11.003,4.401,11.003,11.003v75.917C191.864,579.932,186.364,585.434,180.862,585.434z M114.847,563.429h53.912
		v-53.912h-53.912V563.429z"/>
	<rect x="256.779" y="497.414" fill="#FFFFFF" width="75.917" height="75.917"/>
	<path fill="#FFFFFF" d="M333.796,585.434h-75.917c-6.602,0-11.003-4.401-11.003-11.003v-75.917c0-6.602,4.401-11.003,11.003-11.003
		h75.917c6.601,0,11.002,4.401,11.002,11.003v75.917C344.798,579.932,339.296,585.434,333.796,585.434z M267.781,563.429h53.912
		v-53.912h-53.912V563.429z"/>
	<rect x="409.712" y="497.414" fill="#FFFFFF" width="75.917" height="75.917"/>
	<path fill="#FFFFFF" d="M486.73,585.434h-75.917c-6.602,0-11.003-4.401-11.003-11.003v-75.917c0-6.602,4.401-11.003,11.003-11.003
		h75.917c6.602,0,11.003,4.401,11.003,11.003v75.917C497.733,579.932,492.23,585.434,486.73,585.434z M420.714,563.429h53.912
		v-53.912h-53.912V563.429z"/>
	<path fill="#FFFFFF" d="M333.796,629.444h-75.917c-6.602,0-11.003-4.401-11.003-11.002c0-6.602,4.401-11.003,11.003-11.003h75.917
		c6.601,0,11.002,4.401,11.002,11.003C344.798,625.043,339.296,629.444,333.796,629.444z"/>
	<g>
		<path fill="#FFFFFF" d="M486.73,629.444h-75.917c-6.602,0-11.003-4.401-11.003-11.002c0-6.602,4.401-11.003,11.003-11.003h75.917
			c6.602,0,11.003,4.401,11.003,11.003C497.733,625.043,492.23,629.444,486.73,629.444z"/>
	</g>
	<g id="Camada_3">
	</g>
	<path fill="#FFFFFF" d="M230.373,349.982c-5.501,0-11.003-1.101-16.503-3.301c-8.803-4.401-16.503-12.104-19.804-22.005
		c-3.301-9.902-3.301-19.804,1.101-29.707c6.602-13.203,19.804-22.006,35.207-22.006c5.501,0,11.003,1.101,16.504,3.301
		c18.704,8.803,27.505,31.907,18.704,50.611C258.98,341.179,244.676,349.982,230.373,349.982z M230.373,294.969
		c-6.602,0-12.104,3.3-15.404,9.901c-2.199,4.401-2.199,8.803,0,12.104c2.2,3.301,4.401,7.702,8.803,8.803
		c7.702,3.3,17.604,0,22.006-7.702c3.3-7.702,0-17.604-7.702-22.005C234.774,296.07,232.573,294.969,230.373,294.969z"/>
	<path fill="#FFFFFF" d="M538.441,386.29c-22.006,0-40.71-17.604-40.71-40.709c0-22.006,17.604-40.71,40.71-40.71
		c22.005,0,40.709,17.604,40.709,40.71C579.15,368.685,561.546,386.29,538.441,386.29z M538.441,327.976
		c-9.902,0-18.705,8.803-18.705,18.705c0,9.901,8.803,18.704,18.705,18.704c9.901,0,18.704-8.803,18.704-18.704
		C557.145,335.678,549.443,327.976,538.441,327.976z"/>
	<path fill="#FFFFFF" d="M426.333,871.498c0,6.076-4.926,11.002-11.003,11.002H243.576c-6.077,0-11.002-4.926-11.002-11.002l0,0
		c0-6.077,4.926-11.003,11.002-11.003H415.33C421.407,860.495,426.333,865.421,426.333,871.498L426.333,871.498z"/>
	<path fill="#FFFFFF" d="M380.901,871.498c0,6.076-4.926,11.002-11.004,11.002H198.143c-6.077,0-11.002-4.926-11.002-11.002l0,0
		c0-6.077,4.926-11.003,11.002-11.003h171.754C375.975,860.495,380.901,865.421,380.901,871.498L380.901,871.498z"/>
	<path fill="#FFFFFF" d="M138.608,871.498c0,6.076,4.926,11.002,11.002,11.002h12.258c6.077,0,11.003-4.926,11.003-11.002l0,0
		c0-6.077-4.926-11.003-11.003-11.003H149.61C143.534,860.495,138.608,865.421,138.608,871.498L138.608,871.498z"/>
	<path fill="#FFFFFF" d="M397.302,792.873c0,6.357-4.85,11.511-10.833,11.511H217.377c-5.983,0-10.833-5.153-10.833-11.511l0,0
		c0-6.357,4.85-11.511,10.833-11.511h169.092C392.452,781.362,397.302,786.515,397.302,792.873L397.302,792.873z"/>
	<path fill="#FFFFFF" d="M478.779,792.873c0,6.357-4.85,11.511-10.833,11.511H298.853c-5.983,0-10.833-5.153-10.833-11.511l0,0
		c0-6.357,4.85-11.511,10.833-11.511h169.092C473.929,781.362,478.779,786.515,478.779,792.873L478.779,792.873z"/>
	<path fill="#FFFFFF" d="M525.042,804.384h-9.94c-5.983,0-10.833-5.153-10.833-11.511l0,0c0-6.357,4.85-11.511,10.833-11.511h29.065
		"/>
	<path fill="#FFFFFF" d="M241.376,746.07c0,6.077-4.926,11.003-11.003,11.003l0,0c-6.077,0-11.003-4.926-11.003-11.003l0,0
		c0-6.077,4.926-11.003,11.003-11.003l0,0C236.45,735.067,241.376,739.993,241.376,746.07L241.376,746.07z"/>
	<path fill="#FFFFFF" d="M306.027,746.07c0,6.077-4.926,11.003-11.003,11.003l0,0c-6.077,0-11.003-4.926-11.003-11.003l0,0
		c0-6.077,4.926-11.003,11.003-11.003l0,0C301.101,735.067,306.027,739.993,306.027,746.07L306.027,746.07z"/>
	<path fill="#FFFFFF" d="M371.203,746.07c0,6.077-4.926,11.003-11.002,11.003l0,0c-6.077,0-11.003-4.926-11.003-11.003l0,0
		c0-6.077,4.926-11.003,11.003-11.003l0,0C366.278,735.067,371.203,739.993,371.203,746.07L371.203,746.07z"/>
	<g>
		<path fill="#FFFFFF" d="M579.149,689.958H11.423c-6.602,0-11.003,4.401-11.003,11.003v48.409
			c0,30.809,24.207,55.014,55.013,55.014h177.898l5.842-14.304c2.2-4.401,5.501-6.602,9.902-6.602h92.42
			c4.401,0,8.803,2.2,9.901,6.602l5.926,14.304h56.428v-23.104H55.435c-18.705,0-33.008-14.304-33.008-33.008v-37.409h545.721
			v37.409c0,18.704-14.304,33.008-33.008,33.008l-13.421,0.083l0.781,23.021h12.64c29.707,0,55.013-25.307,55.011-55.014v-48.409
			C590.151,694.359,585.75,689.958,579.149,689.958z"/>
		<path fill="#FFFFFF" d="M356.901,860.495H232.573l23.104-56.111h-22.347l-26.065,63.813c-1.099,3.301-1.099,6.602,1.101,9.902
			c2.202,2.201,5.502,4.4,8.803,4.4h156.235c6.602,0,11.002-4.4,12.1-8.802c0-3.301-1.1-4.401-2.2-6.602l-25.981-62.713h-23.528
			L356.901,860.495z"/>
	</g>
	<g>
		<path fill="#FFFFFF" d="M590.153,427.885L579.744,432l-11.597,9.609v247.249H22.427h-0.002V370.886
			c0-18.705,14.304-33.008,33.008-33.008h63.359l-2.196-15.798l10.689-6.207h-71.85c-30.808,0-55.013,24.206-55.013,55.013v328.973
			c0,6.602,4.401,11.003,11.002,11.003H579.15c5.501,0,11.003-4.401,11.003-11.003"/>
		<polygon fill="#FFFFFF" points="405.244,337.879 405.244,329 419.244,318.5 424.901,315.874 321.48,315.874 332.453,337.879 		"/>
	</g>
	<path fill="#FFFFFF" d="M560.446,489.714h-42.909c-5.501,0-9.902-4.401-11.003-9.902l-3.301-24.205
		c-5.5-2.2-12.104-4.401-17.604-7.702l-18.705,15.404c-4.401,3.301-11.002,3.301-14.303-1.101l-29.707-29.707
		c-4.401-4.401-4.401-9.902-1.101-14.304l15.403-18.704c-3.3-5.501-5.5-11.003-7.701-17.604l-24.205-3.3
		c-5.501-1.102-9.902-5.501-9.902-11.003v-42.909c0-5.501,4.401-9.902,9.902-11.003l24.205-3.301
		c2.199-5.501,4.401-12.104,7.701-17.604l-15.403-18.705c-3.301-4.401-3.301-11.002,1.101-14.303l29.707-29.707
		c4.401-4.401,9.901-4.401,14.303-1.101l18.705,15.403c5.5-3.3,11.002-5.5,17.604-7.701l3.301-24.205
		c1.101-5.501,5.5-9.902,11.003-9.902h42.909c5.5,0,9.901,4.401,11.003,9.902l3.3,24.205c5.501,2.199,12.104,4.401,17.604,7.701
		l18.704-15.403c4.401-3.301,11.003-3.301,14.303,1.101l29.707,29.707c4.401,4.401,4.401,9.901,1.102,14.303l-15.404,19.804
		c3.301,5.501,5.501,11.003,7.702,17.604l24.205,3.301c5.5,1.101,9.901,5.5,9.901,11.002v42.91c0,5.5-4.401,9.901-9.901,11.002
		l-24.205,2.2c-2.2,5.501-4.401,12.104-7.702,17.604l15.404,18.705c3.301,4.401,3.301,11.002-1.101,14.303l-29.707,29.707
		c-4.401,4.401-9.902,4.401-14.304,1.101l-19.804-15.403c-5.501,3.301-11.003,5.5-17.604,7.702l-3.301,24.205
		C570.347,485.312,565.948,489.714,560.446,489.714z M527.438,467.708h23.105l2.2-22.005c1.101-4.401,3.301-8.803,8.803-9.901
		c8.803-2.2,17.604-5.501,25.306-11.003c4.401-2.2,8.803-2.2,12.104,1.101l17.604,13.202l16.503-16.503l-13.202-17.604
		c-3.301-3.301-3.301-8.803-1.101-12.104c4.401-7.702,8.803-16.503,11.002-25.306c1.102-4.401,4.401-7.702,9.902-8.803l22.005-2.2
		v-23.105l-22.005-2.2c-4.401-1.101-8.803-3.301-9.902-8.803c-2.199-8.802-5.5-17.604-11.002-25.306
		c-2.2-4.401-2.2-8.803,1.101-12.103l13.202-16.504l-16.503-16.503l-17.604,13.203c-3.301,3.3-8.803,3.3-12.104,1.101
		c-7.702-4.401-16.503-8.803-25.306-11.003c-4.401-1.101-7.702-4.401-8.803-9.901l-2.2-22.006h-23.105l-2.2,22.006
		c-1.101,4.4-3.301,8.802-8.803,9.901c-8.802,2.2-17.604,5.501-25.306,11.003c-4.401,2.199-8.803,2.199-12.103-1.101l-17.604-13.203
		l-16.501,16.503l13.202,17.604c3.301,3.301,3.301,8.803,1.101,12.103c-3.113,5.448-6.227,11.445-8.561,17.604
		c-0.966,2.549-1.798,5.125-2.442,7.702c-1.101,4.401-4.4,7.702-9.901,8.803l-22.005,2.2v23.105l22.005,2.2
		c4.401,0,8.803,3.301,9.901,8.803c2.2,8.803,5.501,17.604,11.003,25.306c2.2,4.401,2.2,8.803-1.101,12.104l-13.202,17.604
		l16.503,16.504L479.028,427c3.301-3.301,8.803-3.301,12.104-1.101c7.702,4.401,16.503,8.803,25.306,11.003
		c4.401,1.101,7.702,4.401,8.803,9.901L527.438,467.708z"/>
	<path fill="#FFFFFF" d="M254.578,444.602c-4.401,0-7.702-2.2-9.902-5.501l-9.901-19.804c-5.501,0-11.003,0-16.503-1.101
		l-12.104,18.705c-3.301,4.401-8.803,6.601-14.303,4.401L155.557,424.8c-5.501-2.199-7.702-7.702-5.501-13.202l6.602-20.904
		c-4.401-3.301-7.702-7.702-11.003-12.104l-22.005,5.501c-5.5,1.101-11.002-2.2-13.202-6.602L97.244,340.08
		c-2.199-5.5,0-11.002,5.501-13.202l19.804-9.902c0-5.5,0-11.002,1.101-16.503l-18.704-13.202
		c-4.401-3.301-6.602-8.803-4.401-14.304l16.503-36.308c2.2-5.501,7.702-7.702,13.202-5.501l20.905,6.602
		c3.3-4.401,7.701-7.702,12.103-11.003l-5.5-22.005c-1.101-5.501,2.199-11.003,6.601-13.203l37.409-13.202
		c5.501-2.2,11.003,0,13.203,5.501l11.002,19.804c5.501,0,11.003,0,16.503,1.101l12.104-18.705c3.301-4.4,8.803-6.601,14.303-4.4
		l36.309,16.503c5.501,2.199,7.702,7.701,5.501,13.202l-7.702,20.904c4.401,3.301,7.702,7.702,11.002,12.104l22.006-5.501
		c5.5-1.101,11.002,2.2,13.202,6.602l13.202,37.409c2.2,5.5,0,11.002-5.5,13.202l-19.804,9.902c0,5.5,0,11.002-1.101,16.503
		L354.7,334.58c4.401,3.3,6.602,8.802,4.401,14.303l-16.503,36.309c-2.2,5.5-7.702,7.701-13.203,5.5l-20.904-6.601
		c-3.301,4.401-7.702,7.701-12.103,11.002l5.5,22.005c1.101,5.501-2.2,11.003-6.601,13.203l-37.409,13.202
		C256.779,444.602,255.678,444.602,254.578,444.602z M240.276,396.192c4.4,0,7.701,2.2,9.901,5.5l8.803,17.604l18.704-6.602
		l-4.401-18.704c-1.101-4.401,1.101-8.803,4.401-12.104c6.602-4.401,13.203-11.003,18.705-17.604
		c3.3-3.301,7.701-5.501,12.103-3.301l18.705,5.5l8.802-17.604l-16.503-9.901c-4.401-2.2-5.5-6.602-5.5-11.003
		c1.101-8.803,2.199-16.503,1.101-25.306c0-4.401,2.199-8.803,5.5-11.003l17.604-8.803l-6.602-18.704l-18.704,4.401
		c-4.401,1.101-8.803-1.101-12.104-4.401c-4.401-6.602-11.003-13.202-17.604-18.704c-3.301-3.301-5.501-7.702-3.301-12.104
		l5.501-18.704l-17.604-8.803l-9.901,16.503c-2.2,4.401-6.602,5.501-11.003,5.501c-8.803-1.102-16.503-2.2-25.306-1.102
		c-4.401,0-8.803-2.199-11.003-5.5l-8.802-17.604l-19.804,6.601l4.4,18.705c1.102,4.401-1.101,8.802-4.4,12.103
		c-6.602,4.401-13.203,11.003-18.705,17.604c-3.301,3.3-7.702,5.5-12.104,3.3l-18.705-5.496l-8.803,17.604l16.503,9.902
		c4.401,2.2,5.501,6.602,5.501,11.003c-1.102,8.802-2.2,16.503-1.102,25.306c0,4.401-2.199,8.802-5.5,11.002l-17.604,8.803
		l6.601,18.704l18.705-4.4c4.401-1.102,8.803,1.101,12.103,4.4c4.401,6.602,11.003,13.203,17.604,18.705
		c3.3,3.301,5.5,7.702,3.3,12.104l-5.5,18.704l17.604,8.803l9.902-16.503c2.199-4.401,6.601-5.501,11.002-5.501
		c8.803,1.101,16.504,2.2,25.306,1.101C240.276,396.192,240.276,396.192,240.276,396.192z"/>
	<path fill="#FFFFFF" d="M190.906,618.441c0,6.077-4.926,11.003-11.002,11.003h-41.651c-6.077,0-11.002-4.926-11.002-11.003l0,0
		c0-6.076,4.926-11.002,11.002-11.002h41.651C185.98,607.439,190.906,612.365,190.906,618.441L190.906,618.441z"/>
	<path fill="#FFFFFF" d="M96.845,618.267c0,5.979,4.848,10.827,10.828,10.827l0,0c5.98,0,10.828-4.848,10.828-10.827l0,0
		c0-5.98-4.848-10.828-10.828-10.828l0,0C101.693,607.439,96.845,612.287,96.845,618.267L96.845,618.267z"/>
</g>
</svg>
