<?xml version="1.0" encoding="utf-8"?>
<!-- Generator: Adobe Illustrator 16.0.0, SVG Export Plug-In . SVG Version: 6.00 Build 0)  -->
<!DOCTYPE svg PUBLIC "-//W3C//DTD SVG 1.1//EN" "http://www.w3.org/Graphics/SVG/1.1/DTD/svg11.dtd">
<svg version="1.1" id="Capa_1" xmlns="http://www.w3.org/2000/svg" xmlns:xlink="http://www.w3.org/1999/xlink" x="0px" y="0px"
	 width="705px" height="740px" viewBox="0 152.5 705 740" enable-background="new 0 152.5 705 740" xml:space="preserve">
<circle fill="#FD7F34" cx="538.441" cy="344.48" r="166.138"/>
<path fill="#4C4C4C" d="M579.15,699.859V370.886c0-24.205-19.804-44.011-44.01-44.011H55.433c-24.205,0-44.01,19.804-44.01,44.011
	v328.973H579.15z"/>
<path fill="#383838" d="M579.15,710.862H11.424c-6.601,0-11.002-4.401-11.002-11.003V370.886c0-30.807,24.205-55.013,55.013-55.013
	H535.14c30.806,0,55.013,24.205,55.013,55.013v328.973C590.153,706.461,584.651,710.862,579.15,710.862z M22.427,688.857h545.721
	V370.886c0-18.705-14.304-33.008-33.008-33.008H55.433c-18.704,0-33.008,14.303-33.008,33.008v317.971H22.427z"/>
<g>
	<rect x="55.433" y="370.886" fill="#FFFFFF" width="479.707" height="284.963"/>
	<path fill="#FFFFFF" d="M11.424,699.859v42.812c0,21.406,19.42,38.921,43.158,38.921h478.793c26.25,0,34.772-21.83,34.772-30.455
		v-51.277H11.424z"/>
</g>
<rect x="103.845" y="497.414" fill="#FFFFFF" width="75.917" height="75.917"/>
<path fill="#FD7F34" d="M180.862,585.434h-77.017c-6.602,0-11.003-4.401-11.003-11.003v-75.917c0-6.602,4.401-11.003,11.003-11.003
	h75.917c6.602,0,11.003,4.401,11.003,11.003v75.917C191.864,579.932,186.364,585.434,180.862,585.434z M114.847,563.429h53.912
	v-53.912h-53.912V563.429z"/>
<rect x="256.779" y="497.414" fill="#FFFFFF" width="75.917" height="75.917"/>
<path fill="#007AFF" d="M333.796,585.434h-75.917c-6.602,0-11.003-4.401-11.003-11.003v-75.917c0-6.602,4.401-11.003,11.003-11.003
	h75.917c6.601,0,11.002,4.401,11.002,11.003v75.917C344.798,579.932,339.296,585.434,333.796,585.434z M267.781,563.429h53.912
	v-53.912h-53.912V563.429z"/>
<rect x="409.712" y="497.414" fill="#FFFFFF" width="75.917" height="75.917"/>
<path fill="#FD7F34" d="M486.73,585.434h-75.917c-6.602,0-11.003-4.401-11.003-11.003v-75.917c0-6.602,4.401-11.003,11.003-11.003
	h75.917c6.602,0,11.003,4.401,11.003,11.003v75.917C497.733,579.932,492.23,585.434,486.73,585.434z M420.714,563.429h53.912
	v-53.912h-53.912V563.429z"/>
<path fill="#007AFF" d="M333.796,629.444h-75.917c-6.602,0-11.003-4.401-11.003-11.002c0-6.602,4.401-11.003,11.003-11.003h75.917
	c6.601,0,11.002,4.401,11.002,11.003C344.798,625.043,339.296,629.444,333.796,629.444z"/>
<g>
	<path fill="#FD7F34" d="M486.73,629.444h-75.917c-6.602,0-11.003-4.401-11.003-11.002c0-6.602,4.401-11.003,11.003-11.003h75.917
		c6.602,0,11.003,4.401,11.003,11.003C497.733,625.043,492.23,629.444,486.73,629.444z"/>
</g>
<path fill="#FFFFFF" d="M333.796,380.788l16.503-36.308l-25.306-14.304c2.2-9.901,2.2-19.804,1.101-28.606l26.406-13.202
	l-13.202-37.409l-28.606,6.602c-5.501-7.702-12.104-15.404-19.804-20.904l8.803-27.506l-36.312-16.503l-14.303,24.205
	c-9.902-2.2-19.804-2.2-28.606-1.101l-13.202-26.407l-37.409,13.203l6.602,28.606c-7.702,5.5-15.404,12.103-20.904,19.804
	l-28.606-8.803l-16.504,36.311l25.306,15.404c-2.199,9.901-2.199,19.804-1.101,28.606l-26.406,13.202l13.203,37.409l28.605-6.602
	c5.501,7.702,12.104,15.404,19.805,20.904l-8.803,27.506l36.308,16.504l15.404-25.307c9.901,2.2,19.804,2.2,28.606,1.101
	l13.202,26.407l37.409-13.203l-6.602-28.606c7.702-5.5,15.404-12.103,20.904-19.804L333.796,380.788z"/>
<path fill="#4C4C4C" d="M254.578,444.602c-4.401,0-7.702-2.2-9.902-5.501l-9.901-19.804c-5.501,0-11.003,0-16.503-1.101
	l-12.104,18.705c-3.301,4.401-8.803,6.601-14.303,4.401L155.557,424.8c-5.501-2.199-7.702-7.702-5.501-13.202l6.602-20.904
	c-4.401-3.301-7.702-7.702-11.003-12.104l-22.005,5.501c-5.5,1.101-11.002-2.2-13.202-6.602L97.244,340.08
	c-2.199-5.5,0-11.002,5.501-13.202l19.804-9.902c0-5.5,0-11.002,1.101-16.503l-18.704-13.202c-4.401-3.301-6.602-8.803-4.401-14.304
	l16.503-36.308c2.2-5.501,7.702-7.702,13.202-5.501l20.905,6.602c3.3-4.401,7.701-7.702,12.103-11.003l-5.5-22.005
	c-1.101-5.501,2.199-11.003,6.601-13.203l37.409-13.202c5.501-2.2,11.003,0,13.203,5.501l11.002,19.804
	c5.501,0,11.003,0,16.503,1.101l12.104-18.705c3.301-4.4,8.803-6.601,14.303-4.4l36.309,16.503
	c5.501,2.199,7.702,7.701,5.501,13.202l-7.702,20.904c4.401,3.301,7.702,7.702,11.002,12.104l22.006-5.501
	c5.5-1.101,11.002,2.2,13.202,6.602l13.202,37.409c2.2,5.5,0,11.002-5.5,13.202l-19.804,9.902c0,5.5,0,11.002-1.101,16.503
	L354.7,334.58c4.401,3.3,6.602,8.802,4.401,14.303l-16.503,36.309c-2.2,5.5-7.702,7.701-13.203,5.5l-20.904-6.601
	c-3.301,4.401-7.702,7.701-12.103,11.002l5.5,22.005c1.101,5.501-2.2,11.003-6.601,13.203l-37.409,13.202
	C256.779,444.602,255.678,444.602,254.578,444.602z M240.276,396.192c4.4,0,7.701,2.2,9.901,5.5l8.803,17.604l18.704-6.602
	l-4.401-18.704c-1.101-4.401,1.101-8.803,4.401-12.104c6.602-4.401,13.203-11.003,18.705-17.604c3.3-3.301,7.701-5.501,12.103-3.301
	l18.705,5.5l8.802-17.604l-16.503-9.901c-4.401-2.2-5.5-6.602-5.5-11.003c1.101-8.803,2.199-16.503,1.101-25.306
	c0-4.401,2.199-8.803,5.5-11.003l17.604-8.803l-6.602-18.704l-18.704,4.401c-4.401,1.101-8.803-1.101-12.104-4.401
	c-4.401-6.602-11.003-13.202-17.604-18.704c-3.301-3.301-5.501-7.702-3.301-12.104l5.501-18.704l-17.604-8.803l-9.901,16.503
	c-2.2,4.401-6.602,5.501-11.003,5.501c-8.803-1.102-16.503-2.2-25.306-1.102c-4.401,0-8.803-2.199-11.003-5.5l-8.802-17.604
	l-19.804,6.601l4.4,18.705c1.102,4.401-1.101,8.802-4.4,12.103c-6.602,4.401-13.203,11.003-18.705,17.604
	c-3.301,3.3-7.702,5.5-12.104,3.3l-18.705-5.496l-8.803,17.604l16.503,9.902c4.401,2.2,5.501,6.602,5.501,11.003
	c-1.102,8.802-2.2,16.503-1.102,25.306c0,4.401-2.199,8.802-5.5,11.002l-17.604,8.803l6.601,18.704l18.705-4.4
	c4.401-1.102,8.803,1.101,12.103,4.4c4.401,6.602,11.003,13.203,17.604,18.705c3.3,3.301,5.5,7.702,3.3,12.104l-5.5,18.704
	l17.604,8.803l9.902-16.503c2.199-4.401,6.601-5.501,11.002-5.501c8.803,1.101,16.504,2.2,25.306,1.101
	C240.276,396.192,240.276,396.192,240.276,396.192z"/>
<circle fill="#007AFF" cx="230.373" cy="311.472" r="69.316"/>
<circle fill="#FFFFFF" cx="230.373" cy="311.472" r="27.506"/>
<path fill="#4C4C4C" d="M230.373,349.982c-5.501,0-11.003-1.101-16.503-3.301c-8.803-4.401-16.503-12.104-19.804-22.005
	c-3.301-9.902-3.301-19.804,1.101-29.707c6.602-13.203,19.804-22.006,35.207-22.006c5.501,0,11.003,1.101,16.504,3.301
	c18.704,8.803,27.505,31.907,18.704,50.611C258.98,341.179,244.676,349.982,230.373,349.982z M230.373,294.969
	c-6.602,0-12.104,3.3-15.404,9.901c-2.199,4.401-2.199,8.803,0,12.104c2.2,3.301,4.401,7.702,8.803,8.803
	c7.702,3.3,17.604,0,22.006-7.702c3.3-7.702,0-17.604-7.702-22.005C234.774,296.07,232.573,294.969,230.373,294.969z"/>
<path fill="#FFFFFF" d="M671.571,367.586v-42.909l-31.907-3.301c-2.2-9.902-6.602-19.804-12.104-28.606l19.804-25.306
	l-29.707-29.707l-25.304,19.805c-8.803-5.5-18.705-8.803-28.606-12.103l-3.301-31.907h-42.91l-3.3,31.907
	c-9.902,2.199-19.804,6.601-28.606,12.103l-25.306-19.804l-29.706,29.706l19.804,25.306c-5.5,8.803-8.803,18.704-12.103,28.606
	l-31.907,3.301v42.909l31.907,3.301c2.199,9.901,6.601,19.804,12.103,28.606l-19.804,25.306l29.707,29.707l25.306-19.804
	c8.803,5.501,18.705,8.803,28.606,12.104l3.301,31.906h42.909l3.301-31.906c9.902-2.2,19.804-6.602,28.606-12.104l25.306,19.804
	l29.707-29.707l-19.804-25.306c5.501-8.803,8.803-18.705,12.104-28.606L671.571,367.586z"/>
<path fill="#4C4C4C" d="M560.446,489.714h-42.909c-5.501,0-9.902-4.401-11.003-9.902l-3.301-24.205
	c-5.5-2.2-12.104-4.401-17.604-7.702l-18.705,15.404c-4.401,3.301-11.002,3.301-14.303-1.101l-29.707-29.707
	c-4.401-4.401-4.401-9.902-1.101-14.304l15.403-18.704c-3.3-5.501-5.5-11.003-7.701-17.604l-24.205-3.3
	c-5.501-1.102-9.902-5.501-9.902-11.003v-42.909c0-5.501,4.401-9.902,9.902-11.003l24.205-3.301
	c2.199-5.501,4.401-12.104,7.701-17.604l-15.403-18.705c-3.301-4.401-3.301-11.002,1.101-14.303l29.707-29.707
	c4.401-4.401,9.901-4.401,14.303-1.101l18.705,15.403c5.5-3.3,11.002-5.5,17.604-7.701l3.301-24.205
	c1.101-5.501,5.5-9.902,11.003-9.902h42.909c5.5,0,9.901,4.401,11.003,9.902l3.3,24.205c5.501,2.199,12.104,4.401,17.604,7.701
	l18.704-15.403c4.401-3.301,11.003-3.301,14.303,1.101l29.707,29.707c4.401,4.401,4.401,9.901,1.102,14.303l-15.404,19.804
	c3.301,5.501,5.501,11.003,7.702,17.604l24.205,3.301c5.5,1.101,9.901,5.5,9.901,11.002v42.91c0,5.5-4.401,9.901-9.901,11.002
	l-24.205,2.2c-2.2,5.501-4.401,12.104-7.702,17.604l15.404,18.705c3.301,4.401,3.301,11.002-1.101,14.303l-29.707,29.707
	c-4.401,4.401-9.902,4.401-14.304,1.101l-19.804-15.403c-5.501,3.301-11.003,5.5-17.604,7.702l-3.301,24.205
	C570.347,485.312,565.948,489.714,560.446,489.714z M527.438,467.708h23.105l2.2-22.005c1.101-4.401,3.301-8.803,8.803-9.901
	c8.803-2.2,17.604-5.501,25.306-11.003c4.401-2.2,8.803-2.2,12.104,1.101l17.604,13.202l16.503-16.503l-13.202-17.604
	c-3.301-3.301-3.301-8.803-1.101-12.104c4.401-7.702,8.803-16.503,11.002-25.306c1.102-4.401,4.401-7.702,9.902-8.803l22.005-2.2
	v-23.105l-22.005-2.2c-4.401-1.101-8.803-3.301-9.902-8.803c-2.199-8.802-5.5-17.604-11.002-25.306
	c-2.2-4.401-2.2-8.803,1.101-12.103l13.202-16.504l-16.503-16.503l-17.604,13.203c-3.301,3.3-8.803,3.3-12.104,1.101
	c-7.702-4.401-16.503-8.803-25.306-11.003c-4.401-1.101-7.702-4.401-8.803-9.901l-2.2-22.006h-23.105l-2.2,22.006
	c-1.101,4.4-3.301,8.802-8.803,9.901c-8.802,2.2-17.604,5.501-25.306,11.003c-4.401,2.199-8.803,2.199-12.103-1.101l-17.604-13.203
	l-16.501,16.503l13.202,17.604c3.301,3.301,3.301,8.803,1.101,12.103c-4.401,7.702-8.803,16.504-11.003,25.306
	c-1.101,4.401-4.4,7.702-9.901,8.803l-22.005,2.2v23.105l22.005,2.2c4.401,0,8.803,3.301,9.901,8.803
	c2.2,8.803,5.501,17.604,11.003,25.306c2.2,4.401,2.2,8.803-1.101,12.104l-13.202,17.604l16.503,16.504L479.028,427
	c3.301-3.301,8.803-3.301,12.104-1.101c7.702,4.401,16.503,8.803,25.306,11.003c4.401,1.101,7.702,4.401,8.803,9.901
	L527.438,467.708z"/>
<circle fill="#E0E4E8" cx="538.441" cy="346.681" r="73.716"/>
<circle fill="#FFFFFF" cx="538.441" cy="346.681" r="29.707"/>
<path fill="#4C4C4C" d="M538.441,386.29c-22.006,0-40.71-17.604-40.71-40.709c0-22.006,17.604-40.71,40.71-40.71
	c22.005,0,40.709,17.604,40.709,40.71C579.15,368.685,561.546,386.29,538.441,386.29z M538.441,327.976
	c-9.902,0-18.705,8.803-18.705,18.705c0,9.901,8.803,18.704,18.705,18.704c9.901,0,18.704-8.803,18.704-18.704
	C557.145,335.678,549.443,327.976,538.441,327.976z"/>
<path fill="#383838" d="M426.333,871.498c0,6.076-4.926,11.002-11.003,11.002H243.576c-6.077,0-11.002-4.926-11.002-11.002l0,0
	c0-6.077,4.926-11.003,11.002-11.003H415.33C421.407,860.495,426.333,865.421,426.333,871.498L426.333,871.498z"/>
<path fill="#383838" d="M378.203,871.498c0,6.076-4.926,11.002-11.003,11.002H195.446c-6.077,0-11.002-4.926-11.002-11.002l0,0
	c0-6.077,4.926-11.003,11.002-11.003H367.2C373.278,860.495,378.203,865.421,378.203,871.498L378.203,871.498z"/>
<path fill="#383838" d="M137.608,871.498c0,6.076,4.926,11.002,11.002,11.002h12.258c6.077,0,11.003-4.926,11.003-11.002l0,0
	c0-6.077-4.926-11.003-11.003-11.003H148.61C142.534,860.495,137.608,865.421,137.608,871.498L137.608,871.498z"/>
<path fill="#383838" d="M397.302,792.873c0,6.357-4.85,11.511-10.833,11.511H217.377c-5.983,0-10.833-5.153-10.833-11.511l0,0
	c0-6.357,4.85-11.511,10.833-11.511h169.092C392.452,781.362,397.302,786.515,397.302,792.873L397.302,792.873z"/>
<path fill="#383838" d="M480.583,792.873c0,6.357-4.85,11.511-10.833,11.511H300.658c-5.983,0-10.833-5.153-10.833-11.511l0,0
	c0-6.357,4.85-11.511,10.833-11.511H469.75C475.734,781.362,480.583,786.515,480.583,792.873L480.583,792.873z"/>
<path fill="#383838" d="M525.042,804.384h-9.94c-5.983,0-10.833-5.153-10.833-11.511l0,0c0-6.357,4.85-11.511,10.833-11.511h29.065"
	/>
<path fill="#383838" d="M241.376,746.07c0,6.077-4.926,11.003-11.003,11.003l0,0c-6.077,0-11.003-4.926-11.003-11.003l0,0
	c0-6.077,4.926-11.003,11.003-11.003l0,0C236.45,735.067,241.376,739.993,241.376,746.07L241.376,746.07z"/>
<path fill="#383838" d="M306.027,746.07c0,6.077-4.926,11.003-11.003,11.003l0,0c-6.077,0-11.003-4.926-11.003-11.003l0,0
	c0-6.077,4.926-11.003,11.003-11.003l0,0C301.101,735.067,306.027,739.993,306.027,746.07L306.027,746.07z"/>
<path fill="#383838" d="M371.203,746.07c0,6.077-4.926,11.003-11.002,11.003l0,0c-6.077,0-11.003-4.926-11.003-11.003l0,0
	c0-6.077,4.926-11.003,11.003-11.003l0,0C366.278,735.067,371.203,739.993,371.203,746.07L371.203,746.07z"/>
<g>
	<path fill="#383838" d="M579.149,689.958H11.423c-6.602,0-11.003,4.401-11.003,11.003v48.409c0,30.809,24.207,55.014,55.013,55.014
		h177.898l5.842-14.304c2.2-4.401,5.501-6.602,9.902-6.602h92.42c4.401,0,8.803,2.2,9.901,6.602l5.926,14.304h56.428v-23.104H55.435
		c-18.705,0-33.008-14.304-33.008-33.008v-37.409h545.721v37.409c0,18.704-14.304,33.008-33.008,33.008l-13.421,0.083l0.781,23.021
		h12.64c29.707,0,55.013-25.307,55.011-55.014v-48.409C590.151,694.359,585.75,689.958,579.149,689.958z"/>
	<path fill="#383838" d="M356.901,860.495H232.573l23.104-56.111h-22.347l-26.065,63.813c-1.099,3.301-1.099,6.602,1.101,9.902
		c2.202,2.201,5.502,4.4,8.803,4.4h156.235c6.602,0,11.002-4.4,12.1-8.802c0-3.301-1.1-4.401-2.2-6.602l-25.981-62.713h-23.528
		L356.901,860.495z"/>
</g>
<path fill="#FD7F34" d="M92.829,618.441c0,6.077,4.926,11.003,11.002,11.003l0,0c6.077,0,11.002-4.926,11.002-11.003l0,0
	c0-6.076-4.926-11.002-11.002-11.002l0,0C97.755,607.439,92.829,612.365,92.829,618.441L92.829,618.441z"/>
<path fill="#FD7F34" d="M127.167,618.441c0,6.077,4.926,11.003,11.002,11.003h39.591c6.077,0,11.002-4.926,11.002-11.003l0,0
	c0-6.076-4.926-11.002-11.002-11.002h-39.591C132.093,607.439,127.167,612.365,127.167,618.441L127.167,618.441z"/>
</svg>
